<svg width="550" height="277" viewBox="0 0 550 277" fill="none" xmlns="http://www.w3.org/2000/svg">
<path d="M127.882 25.3911C127.684 23.8452 127.285 22.3311 126.693 20.887C126.617 20.6139 126.485 20.3594 126.305 20.1396C126.124 19.9198 125.899 19.7396 125.645 19.6104C125.304 19.5229 124.947 19.5189 124.605 19.5989L119.266 20.4069C118.82 20.427 118.392 20.5915 118.048 20.875C117.353 21.5982 118.038 22.7629 118.016 23.7607C117.993 24.8827 116.985 25.7934 115.892 26.0948C114.776 26.3177 113.625 26.3036 112.515 26.0534L105.05 24.906C107.249 24.2117 109.206 22.9201 110.698 21.1786C111.68 20.0275 112.203 17.8786 110.783 17.3335C110.361 17.219 109.921 17.1841 109.486 17.2305C106.104 17.2566 103.443 14.4635 100.277 13.2872C98.2502 12.583 96.0505 12.5306 93.9921 13.1375C91.9338 13.7444 90.1221 14.9796 88.8163 16.6663L92.7929 16.856C93.167 16.8356 93.538 16.9334 93.8521 17.1354C94.7236 17.8436 93.6402 19.2039 93.7629 20.3129C93.9224 21.7537 95.8566 22.0614 97.3146 22.207C98.7726 22.3527 100.622 23.5244 99.9209 24.7971C92.5928 27.2937 85.1357 19.9168 77.4397 20.8249C75.4919 21.0547 73.6526 21.8115 71.7509 22.2874C60.1338 25.1946 48.1239 17.4379 36.2564 19.0807C33.6182 19.5255 31.0252 20.2019 28.5083 21.1018C26.8931 21.6264 25.2083 22.1933 24.0348 23.4098C22.8612 24.6263 22.4145 26.7068 23.5263 27.9788C20.462 28.2284 17.3771 27.9384 14.4152 27.1222C15.2161 27.5626 15.8825 28.2081 16.3442 28.991C16.806 29.7739 17.0461 30.6654 17.0395 31.5717C12.2548 32.3434 7.59689 33.7482 3.19092 35.7483C4.01324 37.1008 4.97371 38.3663 6.05724 39.5249L0 43.3739C2.04642 43.8839 3.10448 46.6439 1.91441 48.3677C4.03632 47.434 5.35138 45.0187 7.6204 44.529C9.10692 44.2082 10.6195 44.8096 12.0297 45.3747C13.4399 45.9397 14.9898 46.4876 16.4496 46.0635C17.9095 45.6395 18.9862 43.7672 18.0586 42.5743C24.2984 40.7736 30.747 39.7771 37.2447 39.6095C37.746 39.5473 38.2544 39.6427 38.6978 39.8822C39.5436 40.4627 39.3211 41.7163 39.2755 42.7336C39.2299 43.7508 40.0315 45.0877 40.9507 44.6292C39.8693 45.5568 40.7938 47.3029 41.8313 48.2782C42.8688 49.2536 44.1193 50.5994 43.4841 51.8682C43.3183 52.1993 43.0372 52.4643 42.8777 52.7984C42.4068 53.7847 43.1544 54.9345 44.0361 55.5895C44.9179 56.2444 45.998 56.7022 46.6105 57.6092C47.223 58.5161 46.9448 60.1037 45.8496 60.2303L42.7364 56.3208C41.6728 57.4117 40.9436 58.7784 40.6334 60.2626C43.9347 62.9318 44.4312 68.3648 41.6675 71.5763C40.2551 73.2175 38.2466 74.2147 36.4937 75.4948C34.7407 76.7749 33.1187 78.5978 33.1231 80.7529C33.1307 84.4763 32.8231 87.9355 34.2338 91.3877C36.835 97.753 39.8382 103.95 43.2257 109.943C44.1152 111.517 45.2649 113.241 47.0669 113.512C44.7895 108.028 42.7393 102.459 40.9165 96.8048C42.1037 96.8094 43.4758 96.9026 44.1718 97.854C44.7481 98.6418 44.6243 99.7129 44.8034 100.669C45.0312 101.595 45.411 102.479 45.9277 103.283L56.8032 122.445C57.7047 124.033 58.7389 125.738 60.4619 126.381C61.5636 126.793 62.8381 126.715 63.8521 127.307C64.6469 127.771 65.1822 128.595 65.9924 129.032C68.2834 130.268 71.4692 127.898 73.6102 129.374C74.2223 129.796 74.6118 130.466 75.1758 130.949C77.1532 132.643 80.3969 131.51 82.6796 132.773C84.1507 133.588 84.9132 135.216 85.6978 136.692C87.6634 140.389 90.8437 144.01 95.056 144.305C96.3792 144.397 97.7307 144.149 99.0241 144.44C100.318 144.731 101.591 145.848 101.383 147.143C101.027 149.365 102.137 151.798 101.839 154.027C101.296 158.089 95.4711 159.874 94.9708 163.941C94.8612 164.832 95.0327 165.751 94.8183 166.623C94.5556 167.691 93.7444 168.561 93.4562 169.622C92.91 171.635 94.3676 173.637 95.9688 174.991C97.5701 176.345 99.4801 177.512 100.355 179.408C101.281 181.411 100.826 183.746 101.127 185.928C101.784 190.692 105.944 194.223 110.225 196.5C111.53 197.194 112.93 197.866 113.774 199.069C114.876 200.64 114.766 202.711 115.134 204.588C116.035 209.185 119.948 212.972 120.059 217.653C120.138 220.981 118.268 223.999 117.151 227.138C116.104 230.146 115.725 233.342 116.04 236.508C116.355 239.674 117.357 242.735 118.977 245.483C119.813 246.879 120.812 248.195 121.403 249.707C122.458 252.407 122.116 255.476 123.088 258.206C124.374 261.815 127.907 264.796 127.569 268.608C129.173 271.903 132.715 273.521 136.277 274.502L142.66 276.26C143.883 276.596 145.16 276.935 146.404 276.692C147.649 276.448 148.837 275.426 148.805 274.171C145.674 273.473 142.444 272.731 139.863 270.844C137.283 268.957 135.515 265.597 136.494 262.575C136.948 261.173 137.914 259.555 136.996 258.397C136.47 257.734 135.509 257.56 134.916 256.955C133.991 256.012 134.308 254.426 134.973 253.289C135.638 252.151 136.599 251.134 136.868 249.847C137.003 249.126 136.913 248.383 136.608 247.715C136.304 247.047 135.801 246.487 135.166 246.11C136.349 245.668 137.426 244.985 138.325 244.105C139.156 243.166 139.54 241.72 138.886 240.653C140.827 240.896 143.119 241.015 144.393 239.547C145.41 238.374 145.341 236.621 144.939 235.128C144.537 233.634 143.857 232.184 143.836 230.639C148.313 230.849 152.801 230.698 157.253 230.189C156.61 228.044 155.146 226.231 153.174 225.135C155.191 224.798 157.028 222.41 157.665 220.488C158.302 218.565 158.14 216.471 157.746 214.486C157.595 213.975 157.574 213.435 157.686 212.914C157.913 212.198 158.624 211.761 159.281 211.387L169.292 205.701C169.889 205.405 170.43 205.01 170.892 204.532C171.941 203.314 171.786 201.475 171.249 199.965C170.712 198.456 169.852 197.036 169.645 195.449C169.026 190.703 174.163 187.297 175.897 182.829C176.577 181.076 176.716 179.17 176.847 177.296C176.989 175.284 176.999 172.946 175.437 171.65C173.94 170.407 171.6 170.684 170.033 169.528C168.596 168.467 168.101 166.409 166.531 165.552C165.106 164.775 163.319 165.269 161.734 164.904C158.943 164.26 157.187 161.078 154.336 160.784C152.728 160.617 150.908 161.395 149.59 160.469C148.428 159.652 148.382 158.012 148.161 156.619C147.773 154.456 146.725 152.461 145.156 150.905C143.588 149.349 141.575 148.305 139.389 147.915C137.731 147.652 135.926 147.752 134.515 146.851C133.087 145.938 132.432 144.229 131.31 142.966C129.501 140.929 126.653 140.205 123.985 139.584L113.133 137.061C111.207 136.613 108.724 136.376 107.69 138.045C107.384 138.68 107.167 139.354 107.046 140.048C106.658 141.303 105.879 142.404 104.819 143.192C103.759 143.981 102.474 144.418 101.148 144.439C100.238 142.904 98.7649 141.777 97.0349 141.291C95.9345 140.988 94.7566 140.954 93.7071 140.508C93.1355 140.232 92.6269 139.843 92.2123 139.366C91.7978 138.889 91.486 138.333 91.2962 137.733C91.1063 137.133 91.0423 136.5 91.1081 135.874C91.1739 135.249 91.3681 134.643 91.6788 134.094C92.3045 132.992 92.5461 131.717 92.3664 130.466C92.1867 129.215 91.5956 128.057 90.6845 127.171C88.8389 125.532 86.1693 125.136 83.6947 125.3C83.0466 123.902 84.1303 122.323 85.2981 121.307C86.4658 120.29 87.8839 119.291 88.1382 117.773C88.5382 115.385 85.458 113.572 83.1193 114.284C80.7805 114.996 79.2878 117.243 78.3011 119.457C77.735 120.728 77.2536 122.066 76.3606 123.138C75.4676 124.209 74.0294 124.977 72.6692 124.633C70.7434 124.146 69.9997 121.883 69.5735 119.963C69.0016 117.386 68.4265 114.774 68.5463 112.139C68.6661 109.504 69.5642 106.799 71.5287 105.015C74.7299 102.108 79.6408 102.393 83.9611 102.857C82.9403 101.719 83.1926 99.8022 84.2847 98.7315C84.8612 98.2249 85.554 97.865 86.3029 97.683C87.0518 97.501 87.8343 97.5025 88.5825 97.6872C89.8844 97.9552 91.0571 98.6488 91.912 99.6562C93.1397 101.137 93.4888 103.136 94.4168 104.816C95.3448 106.497 97.4314 107.93 99.1393 107.028C100.614 106.25 100.849 104.226 100.481 102.613C100.114 100.999 99.3345 99.4304 99.4675 97.7817C99.7213 94.6359 103.018 92.7424 105.928 91.4468C108.837 90.1513 112.168 88.4089 112.629 85.2862C112.645 84.6748 112.762 84.0701 112.974 83.4958C113.297 82.9887 113.745 82.5716 114.277 82.2842C122.768 76.734 131.4 71.1161 141.105 68.0834C141.61 67.9256 141.669 68.101 142.184 67.9774C142.904 67.5657 142.427 66.4269 141.736 65.9681C141.046 65.5093 140.123 65.1575 139.948 64.3533C139.819 63.7621 140.171 63.1815 140.263 62.5836C140.487 61.1142 138.71 59.7576 137.33 60.345C136.551 59.3239 138.093 58.1374 139.34 57.7977C143.086 56.7782 146.93 56.157 150.809 55.9447C151.257 55.8743 151.715 55.9514 152.114 56.1642C152.765 56.6106 152.682 57.6343 152.221 58.2714C151.759 58.9084 151.041 59.3084 150.465 59.8475C149.837 60.4532 149.388 61.218 149.169 62.0584C148.95 62.8989 148.969 63.7828 149.223 64.6136C151.248 65.6323 153.449 66.681 155.691 66.3222C157.934 65.9633 159.925 63.471 158.87 61.4806C157.889 59.627 154.94 59.2089 154.433 57.1775C153.84 54.799 157.244 52.6836 156.477 50.354C156.141 49.3336 155.113 48.7331 154.324 47.9964C153.392 47.0931 152.758 45.9323 152.506 44.6663C152.253 43.4003 152.394 42.0883 152.908 40.9027C151.623 41.1263 150.303 41.0418 149.058 40.6564C147.812 40.271 146.679 39.5958 145.752 38.6876C144.04 36.9789 142.674 34.2834 140.244 34.3599C138.013 34.43 136.092 37.004 134.006 36.2187C133.493 36.0255 132.952 35.6323 132.455 35.8627C132.292 35.9674 132.155 36.1073 132.055 36.2719C131.954 36.4364 131.893 36.6214 131.876 36.8128C131.346 39.3193 132.258 42.1752 130.877 44.3411C129.374 46.6981 125.897 47.0249 124.075 49.1503C123.086 50.304 122.703 51.8587 121.794 53.075C120.884 54.2914 118.955 55.0648 117.864 54.0047C118.4 52.9144 118.546 51.6764 118.279 50.4931C118.012 49.3098 117.347 48.2512 116.392 47.4903C115.379 46.8366 114.287 46.3113 113.142 45.9266C111.862 45.3908 110.645 44.7197 109.511 43.9251C108.943 43.5862 108.482 43.0978 108.178 42.5144C107.938 41.7839 107.971 40.9925 108.269 40.2836C108.823 38.7147 109.799 37.3251 111.092 36.2648C112.385 35.2044 113.947 34.5137 115.608 34.2671C117.061 34.0716 118.752 34.1405 119.713 33.0457C120.222 32.4665 120.489 31.5907 121.227 31.3554C121.699 31.2616 122.19 31.3213 122.625 31.5257L128.047 33.4133C128.652 33.6835 129.318 33.7924 129.979 33.7293C130.306 33.6857 130.605 33.5211 130.815 33.2686C131.025 33.0162 131.131 32.6945 131.111 32.3681C130.938 31.4775 129.552 31.0501 129.678 30.1518C129.749 29.8607 129.907 29.5976 130.132 29.3973C132.089 27.3373 134.482 25.7307 137.14 24.6925C139.798 23.6543 142.655 23.2102 145.507 23.392C146.191 24.5038 145.109 25.8202 144.208 26.7693C143.308 27.7183 142.584 29.414 143.673 30.1446C144.119 30.3699 144.616 30.4805 145.117 30.4662C146.452 30.6449 147.749 31.0341 148.959 31.619C150.833 32.4255 152.671 33.3079 154.473 34.2662C154.313 33.0912 154.162 31.8533 154.612 30.7547C155.062 29.656 156.342 28.7943 157.46 29.2221C158.537 29.6345 159.089 31.0453 160.237 31.1746C161.768 31.347 162.372 29.1099 161.733 27.7233C161.093 26.3368 159.827 25.1757 159.721 23.6553C159.65 22.6295 160.045 21.3573 159.216 20.7362C158.922 20.5497 158.587 20.4337 158.239 20.3972L137.555 16.6324C136.326 16.4089 134.552 16.5802 134.497 17.8143C134.467 18.5032 135.089 19.1847 134.813 19.818C134.519 20.494 133.553 20.4322 132.849 20.6713C131.758 21.0423 131.21 22.3246 131.315 23.4618C131.507 24.5917 131.949 25.6656 132.61 26.6065C131.265 26.05 129.228 25.9477 127.882 25.3911Z" fill="#AECADA"/>
<path d="M111.378 8.02412C110.074 7.59718 108.668 7.57729 107.352 7.96716C106.036 8.35702 104.873 9.13777 104.02 10.2036C103.68 10.6471 103.394 11.2585 103.679 11.7388C104.088 12.4274 105.129 12.1554 105.897 11.9091C107.026 11.5102 108.254 11.4812 109.401 11.8264C110.122 12.0713 110.767 12.5041 111.491 12.7397C111.844 12.8855 112.23 12.9337 112.608 12.8791C112.986 12.8244 113.342 12.669 113.638 12.4295C114.135 11.9281 114.166 11.1486 114.167 10.4463C114.201 10.2114 114.182 9.97175 114.111 9.74497C114.04 9.51819 113.919 9.30997 113.756 9.1355C113.466 8.96943 113.14 8.87412 112.806 8.85751C112.056 8.72031 111.379 8.3288 110.89 7.75047" fill="#AECADA"/>
<path d="M118.836 5.97021C118.544 5.95448 118.253 6.0133 117.991 6.14101C117.729 6.26871 117.504 6.46101 117.339 6.69941C117.173 6.93781 117.073 7.21429 117.047 7.50227C117.02 7.79024 117.07 8.08003 117.189 8.34377C118.086 8.58557 119.022 8.64597 119.943 8.52135C120.402 8.45084 120.83 8.24747 121.172 7.93687C121.515 7.62628 121.757 7.22236 121.868 6.77601C120.784 6.9711 119.665 6.75982 118.73 6.18338" fill="#AECADA"/>
<path d="M143.86 2.53994C141.42 3.05302 139.05 3.84936 136.799 4.91241C137.86 5.31586 138.762 6.04581 139.372 6.99469C139.983 7.94357 140.268 9.06118 140.188 10.1828C140.092 10.6134 140.103 11.0604 140.22 11.4859C140.479 12.1077 141.231 12.3411 141.891 12.5007C143.078 12.858 144.318 13.0144 145.557 12.9635C146.177 12.9314 146.779 12.7469 147.309 12.4266C147.839 12.1064 148.28 11.6605 148.592 11.1294C148.771 10.6253 148.982 10.1325 149.223 9.65396C150.806 7.26853 155.511 10.1529 157.211 7.84732C157.81 7.03516 157.755 5.81264 158.536 5.16908C158.94 4.88869 159.408 4.71203 159.898 4.65497C163.317 3.98308 166.771 3.49656 170.243 3.1976C171.889 3.05597 174.034 2.47156 174.047 0.837933C167.849 -0.366037 161.423 0.489069 155.767 3.27031C153.729 4.27983 151.034 6.40338 149.071 5.065C148.336 4.56389 148.373 3.21452 147.361 2.65104C146.327 2.07494 144.958 2.30925 143.86 2.53994Z" fill="#AECADA"/>
<path d="M164.129 6.28897L167.039 6.84191C166.503 6.81845 165.969 6.90822 165.471 7.10523C164.973 7.30225 164.524 7.60198 164.153 7.98443C163.781 8.36687 163.497 8.82324 163.318 9.32308C163.139 9.82292 163.07 10.3547 163.115 10.8831C165.84 11.7833 168.81 10.9073 171.68 11.0269C174.55 11.1466 177.89 13.1743 177.4 15.9739C177.251 16.8204 176.757 17.6663 177.014 18.4869C177.194 19.0621 177.707 19.4702 177.997 19.9999C178.6 21.1037 178.118 22.4999 177.356 23.5033C176.594 24.5067 175.571 25.3073 174.902 26.3736C173.239 29.0258 174.184 32.4544 175.175 35.4174C175.461 36.5369 175.99 37.5815 176.725 38.479C178.192 40.0223 180.584 40.1565 182.725 40.1874C184.284 40.2099 186.07 40.1337 187.056 38.9391C188.343 37.3795 187.443 34.9462 188.29 33.1158C189.06 31.4535 191.02 30.7403 192.796 30.2345C196.051 29.3078 199.367 28.52 202.444 27.1203C206.264 25.3823 209.835 22.6737 214.034 22.45C215.212 22.3872 216.419 22.5247 217.554 22.2055C218.688 21.8863 219.766 20.9159 219.68 19.7521C219.607 18.7578 218.756 18.0276 218.092 17.278C217.427 16.5284 216.905 15.3758 217.516 14.5827L228.522 12.5493C227.742 10.4464 227.134 7.67672 228.927 6.30787C229.574 5.81398 230.44 5.61659 230.991 5.01951C231.929 4.00185 231.457 2.24884 230.374 1.38338C229.29 0.517918 227.825 0.317007 226.437 0.202977C221.611 -0.193449 216.758 0.0685012 211.922 0.330655C202.47 0.843107 193.018 1.35556 183.566 1.86801C181.664 1.97117 179.467 1.81357 177.721 2.45564C176.244 2.99922 175.194 3.99701 173.504 4.34757C170.385 4.99475 166.952 4.55682 164.129 6.28897Z" fill="#AECADA"/>
<path d="M216.25 29.035C215.954 28.9886 215.651 29.0566 215.403 29.2249C215.24 29.403 215.143 29.6308 215.128 29.8708C214.94 30.9302 215.164 32.0207 215.754 32.9238C216.055 33.3669 216.47 33.7222 216.957 33.9529C217.443 34.1836 217.983 34.2813 218.521 34.2358C219.831 34.0706 220.797 32.9652 222.001 32.4258C223.857 31.5951 231.74 30.3002 226.287 27.3863C224.408 26.3821 223.194 27.2686 221.712 27.9299C220.027 28.7826 218.139 29.1647 216.25 29.035Z" fill="#AECADA"/>
<path d="M264.013 4.64392C263.377 4.90122 262.844 5.35985 262.498 5.94818C262.339 6.24692 262.302 6.59474 262.395 6.91968C262.488 7.24462 262.704 7.52181 262.997 7.69391C263.235 7.7792 263.487 7.81876 263.74 7.81045L266.329 7.88696C267.429 7.91947 268.803 8.15116 269.099 9.19954C269.318 9.978 268.827 10.9783 269.42 11.5346C269.674 11.7294 269.98 11.8474 270.3 11.8744C271.153 12.0911 272.044 12.1195 272.909 11.9577C274.793 11.4579 273.803 10.3207 274.396 9.30806C275.304 7.75871 275.147 8.69661 276.747 7.80864C277.928 7.15287 279.454 5.96328 278.468 4.29189C276.754 1.38539 266.543 3.39529 264.013 4.64392Z" fill="#AECADA"/>
<path d="M315.115 3.18267L313.612 3.3811C310.222 3.82858 306.812 4.28017 303.547 5.28713C304.961 5.83987 306.443 6.19978 307.955 6.35694C308.787 6.39728 309.614 6.5135 310.424 6.7041C311.866 7.12875 313.32 8.22533 314.713 7.6636C315.577 7.3153 315.859 6.42559 316.574 5.95406C317.069 5.62847 318.943 5.10148 319.152 4.77285C320.846 2.11611 316.417 3.01082 315.115 3.18267Z" fill="#AECADA"/>
<path d="M321.717 9.94107C319.709 11.0517 317.846 12.4013 316.169 13.9598C315.463 14.6165 314.741 15.4334 314.805 16.3902C314.89 17.6619 316.26 18.3995 317.447 18.8964L322.253 20.909C322.836 20.0962 322.302 18.9742 321.699 18.1754C321.097 17.3767 320.381 16.4526 320.647 15.4914C320.951 14.3945 322.303 14.0207 323.437 13.8317C325.284 13.5239 330.268 13.5486 329.669 10.6037C328.963 7.13386 323.572 8.9158 321.717 9.94107Z" fill="#AECADA"/>
<path d="M320.751 206.305C320.293 207.615 320.25 209.158 321.041 210.302C321.93 211.586 323.707 212.064 325.245 211.739C326.776 211.336 328.141 210.468 329.147 209.257C330.067 208.243 330.824 207.094 331.391 205.852C332.183 203.917 332.742 201.896 333.055 199.831L334.547 192.082C334.881 190.35 334.868 185.04 331.65 186.77C330.77 187.243 328.735 190.974 327.813 192.033C326.153 193.94 325.933 195.79 325.059 198.1C323.964 200.994 321.763 203.406 320.751 206.305Z" fill="#AECADA"/>
<path d="M490.73 245.96C489.677 245.554 488.655 245.073 487.672 244.521C486.686 247.201 486.162 250.026 486.122 252.877L493.328 248.844C494.412 248.238 495.64 247.395 495.617 246.163C495.627 246.011 495.595 245.859 495.525 245.723C495.455 245.587 495.349 245.473 495.219 245.392C495.059 245.328 494.884 245.308 494.714 245.333C493.645 245.421 492.671 245.941 491.663 246.303C490.655 246.664 489.476 246.855 488.551 246.319" fill="#AECADA"/>
<path d="M528.744 248.355C527.953 248.568 527.18 248.842 526.433 249.175C524.779 250.007 523.654 251.588 522.166 252.684C520.742 253.733 519.028 254.309 517.345 254.869C516.85 255.302 517.078 256.173 517.615 256.553C518.193 256.879 518.855 257.026 519.518 256.977C521.266 257.015 523.108 257.031 524.64 256.196C525.502 255.643 526.31 255.009 527.051 254.303C528.841 252.826 530.991 251.851 533.12 250.909C533.894 250.619 534.611 250.196 535.235 249.658C536.572 248.355 536.666 246.344 534.738 245.9C533.18 245.542 530.227 247.88 528.744 248.355Z" fill="#AECADA"/>
<path d="M545.539 237.503C545.626 236.607 545.505 235.702 545.187 234.858C544.868 234.014 544.36 233.253 543.7 232.632C543.68 234.426 543.625 236.337 542.605 237.821C541.878 238.878 540.738 239.592 539.942 240.599C539.146 241.606 538.792 243.202 539.726 244.086C540.323 244.535 541.051 244.783 541.801 244.793C543.661 245.009 545.813 245.13 547.117 243.801C547.829 243.076 548.175 242.002 549.044 241.468C549.367 241.334 549.656 241.13 549.889 240.87C550.247 240.307 549.678 239.564 549.036 239.361C548.395 239.157 547.689 239.253 547.044 239.06C546.4 238.867 545.809 238.15 546.139 237.57" fill="#AECADA"/>
<path d="M515.688 171.72C514.712 171.954 513.702 172.013 512.705 171.894C511.05 171.593 509.761 170.359 508.425 169.347C505.247 166.954 501.385 165.619 497.393 165.534C493.761 165.466 490.095 166.44 486.528 165.76C486.761 167.043 487.87 168.004 489.054 168.576C490.237 169.147 491.543 169.435 492.732 169.995C494.637 170.9 496.147 172.455 496.987 174.373C497.37 175.257 497.611 176.219 498.191 176.991C499.377 178.569 501.625 178.916 503.608 178.787C506.194 178.619 508.896 177.883 511.302 178.836C513.142 179.565 514.459 181.159 515.996 182.398C517.533 183.637 519.698 184.556 521.463 183.662C519.63 183.075 518.034 181.924 516.909 180.377C515.784 178.83 515.189 176.967 515.21 175.062C516.941 175.219 521.926 175.158 521.658 172.249C521.43 169.784 517.174 171.454 515.688 171.72Z" fill="#AECADA"/>
<path d="M493.046 191.777C493.353 190.11 495.034 188.638 494.51 187.024C494.148 185.908 492.84 185.357 491.656 185.33C490.471 185.302 489.308 185.651 488.123 185.684C487.352 185.644 486.579 185.655 485.81 185.717C483.459 186.099 482.01 188.536 479.794 189.403C478.447 189.93 476.933 189.829 475.532 190.194C472.352 191.021 470.339 193.993 468.116 196.39C464.523 200.245 459.843 202.945 454.682 204.139C452.873 204.553 450.929 204.818 449.492 205.98C447.588 207.518 447.12 210.156 446.696 212.551C445.526 219.165 443.738 225.658 441.354 231.945L448.907 232.899C450.343 233.08 451.831 233.258 453.214 232.837C454.219 232.462 455.172 231.96 456.047 231.344C459.411 229.279 463.175 227.935 467.097 227.399C469.075 227.131 471.149 227.082 473.005 227.809C474.861 228.536 476.453 230.185 476.608 232.153C477.411 231.906 478.266 231.88 479.083 232.076C479.9 232.273 480.647 232.685 481.246 233.269C482.428 234.461 483.203 235.99 483.46 237.64C483.658 238.662 483.858 239.887 484.816 240.315C485.599 240.665 486.496 240.288 487.351 240.221C490.255 239.991 492.665 243.34 495.519 242.763C498.579 242.145 499.331 237.611 502.317 236.702C504.032 236.181 506.438 236.815 507.259 235.237C507.983 233.846 506.538 232.241 506.687 230.684C506.871 228.767 509.158 227.953 510.92 227.135C516.998 224.314 519.882 216.223 516.937 210.256C515.192 206.72 511.759 203.937 511.125 200.053C510.637 197.065 511.828 193.58 509.901 191.228C508.922 190.031 507.262 189.371 506.679 187.943C506.312 187.045 506.46 186.025 506.262 185.075C506.065 184.126 505.227 183.133 504.279 183.379C501.528 184.093 500.65 192.5 499.177 194.543C496.938 197.648 492.341 195.603 493.046 191.777Z" fill="#AECADA"/>
<path d="M442.19 174.896C441.249 174.635 440.223 174.378 439.322 174.751C438.421 175.124 437.895 176.432 438.618 177.081C444.274 176.863 449.966 176.647 455.574 177.407C462.036 178.282 468.432 180.451 474.922 179.813C471.214 178.731 467.446 177.866 463.635 177.222L457.282 176.022C455.577 175.669 453.855 175.405 452.122 175.233C448.497 174.937 445.754 175.885 442.19 174.896Z" fill="#AECADA"/>
<path d="M447.852 155.41C447.383 155.371 446.801 155.338 446.558 155.737C446.326 156.119 446.592 156.623 446.467 157.051C446.297 157.635 445.523 157.785 444.913 157.705C444.303 157.625 443.643 157.435 443.103 157.726C442.829 157.911 442.623 158.179 442.516 158.489C442.409 158.8 442.407 159.137 442.51 159.449C442.731 160.068 443.088 160.632 443.556 161.098C444.355 162.094 445.265 162.997 446.27 163.79C448.214 165.21 450.848 165.894 452.072 167.954C452.245 168.354 452.511 168.707 452.847 168.986C453.435 169.354 454.202 169.074 454.835 168.788L457.053 167.785C457.453 167.643 457.81 167.403 458.09 167.088C458.597 166.407 458.286 165.44 457.861 164.707C457.435 163.975 456.891 163.216 456.982 162.376C457.145 160.878 459.092 160.305 459.893 159.023C460.7 157.732 460.174 156.067 460.267 154.551C460.376 152.778 461.502 150.472 459.69 149.148C458.15 148.022 456.678 149.062 455.573 150.305C453.241 152.926 452.139 155.764 447.852 155.41Z" fill="#AECADA"/>
<path d="M461.319 128.921C462.077 130.356 463.656 131.212 464.482 132.609C465.377 134.123 465.275 136.079 466.246 137.547C467.242 139.053 469.248 139.852 469.807 141.565C470.417 143.434 469.032 145.707 470.136 147.341C470.342 147.608 470.601 147.83 470.898 147.992C471.195 148.155 471.523 148.255 471.861 148.285C472.199 148.316 472.54 148.277 472.862 148.171C473.184 148.064 473.48 147.893 473.732 147.667C474.197 147.166 474.446 146.505 474.425 145.826C474.405 145.146 474.117 144.5 473.623 144.027C472.969 143.438 472.031 143.184 471.486 142.496C471.202 142.098 471.013 141.643 470.932 141.163C470.635 139.778 470.683 138.343 471.071 136.981C471.217 136.635 471.254 136.254 471.178 135.887C470.932 135.181 469.965 135.131 469.287 134.803C467.746 134.059 467.784 131.909 468.053 130.234C467.874 131.349 463.858 129.453 463.438 128.821C462.603 127.566 463.057 125.146 462.892 123.76C461.089 124.619 460.393 127.168 461.319 128.921Z" fill="#AECADA"/>
<path d="M420.866 150.991C420.125 150.171 419.009 149.312 418.015 149.807C417.257 150.185 417.049 151.222 417.346 152.008C417.708 152.772 418.265 153.429 418.963 153.915C421.033 155.604 423.263 157.128 425.069 159.092C428.302 162.606 430.015 167.347 433.53 170.584C434.237 171.335 435.173 171.836 436.194 172.01C437.219 172.105 438.369 171.456 438.487 170.445C438.584 169.613 437.997 168.867 437.423 168.25C436.058 166.781 434.563 165.429 433.273 163.893C432.678 163.304 432.303 162.531 432.212 161.702C432.206 160.875 432.968 160.01 433.778 160.215C432.793 159.966 432.062 158.343 430.617 158.038C429.409 157.783 429.117 158.523 427.679 157.913C424.938 156.75 422.786 153.117 420.866 150.991Z" fill="#AECADA"/>
<path d="M485.291 71.0871C484.504 70.8559 483.731 70.5827 482.974 70.2687C480.939 69.6643 478.245 71.1443 478.516 73.2293C478.697 74.6147 480 75.5487 480.72 76.7504C481.788 78.5325 481.503 80.7928 480.942 82.7885C480.804 83.4064 480.542 83.9906 480.172 84.5064C479.654 85.051 479.034 85.4917 478.348 85.8044C475.598 87.3292 473.174 89.3664 471.208 91.8034C470.995 92.0285 470.846 92.306 470.777 92.6073C470.68 93.3113 471.396 93.8241 471.8 94.4113C472.699 95.7156 472.049 97.4707 472.138 99.0465C472.124 99.2693 472.168 99.4919 472.266 99.6931C472.364 99.8944 472.512 100.068 472.696 100.196C473.238 100.468 473.88 100.006 474.173 99.4802C475.147 97.7347 474.413 94.9327 476.241 94.0911C476.587 93.9319 477.006 93.8648 477.236 93.5644C477.602 93.088 477.249 92.3825 477.434 91.813C477.713 90.958 478.895 90.9196 479.803 90.9575C481.366 91.0222 482.928 90.8164 484.42 90.3495C485.005 90.2119 485.536 89.9075 485.948 89.4741C486.494 88.7998 486.446 87.841 486.337 86.9837C485.79 82.7096 484.421 78.5785 482.304 74.8134C483.91 75.0163 485.656 75.1919 487.041 74.3645C487.817 73.9011 488.747 72.5155 488.362 71.5724C487.754 70.081 486.655 71.3364 485.291 71.0871Z" fill="#AECADA"/>
<path d="M279.5 94.5938C279.692 95.6129 279.881 96.686 279.543 97.6673C279.205 98.6487 278.143 99.4687 277.14 99.168C276.362 98.9346 275.912 98.1605 275.359 97.5702C272.285 94.288 265.35 96.1883 263.451 92.1277C262.676 90.4704 263.203 88.4849 262.674 86.7354C262.341 85.7243 261.677 84.8514 260.788 84.2538C259.899 83.6561 258.834 83.3676 257.76 83.4336C256.782 83.5734 255.829 83.8547 254.933 84.2685C248.929 86.6467 242.626 88.2059 236.197 88.9033C234.975 88.977 233.767 89.1945 232.597 89.5512C229.958 90.4978 228.154 92.9183 226.87 95.3883C225.587 97.8583 224.639 100.532 222.918 102.727C221.11 105.033 218.575 106.648 216.211 108.395C215.301 108.976 214.542 109.762 213.999 110.689C213.486 111.729 213.515 112.94 213.555 114.097L214.038 128.148C214.1 129.956 214.178 131.828 214.996 133.445C216.017 135.465 218.035 136.788 219.434 138.572C220.863 140.405 221.607 142.671 221.541 144.985C221.511 145.915 221.417 147.015 222.15 147.599C222.595 147.885 223.117 148.033 223.648 148.025L242.865 149.581C246.246 149.855 249.992 150.305 252.199 152.852C253.241 154.054 254.077 155.783 255.673 155.912C256.357 155.967 257.023 155.69 257.707 155.636C259.434 155.501 260.951 156.797 261.909 158.225C263.358 160.402 264.016 163.001 263.774 165.596C263.617 167.225 263.107 168.808 262.996 170.441C262.578 176.653 267.902 182.05 268.005 188.276C268.066 191.937 266.308 195.359 264.595 198.605C267.36 202.749 265.096 208.267 266.197 213.111C267.241 217.706 271.116 221.304 272.081 225.917C272.523 228.029 272.548 230.627 274.431 231.715C275.257 232.113 276.173 232.295 277.09 232.242C282.624 232.306 288.095 231.075 293.055 228.647C295.383 227.504 297.795 225.798 298.202 223.26C298.53 221.212 297.48 218.922 298.548 217.139C299.807 215.037 303.033 215.204 304.885 213.588C307.89 210.966 305.547 205.966 306.764 202.19C307.859 198.796 311.627 196.993 313.494 193.947C314.229 192.637 314.757 191.223 315.058 189.754C315.914 186.245 316.446 182.666 316.649 179.062C316.699 176.872 316.862 174.686 317.138 172.513C319.152 160.139 331.519 151.854 335.535 139.967C335.918 138.832 336.098 137.32 335.077 136.678C334.472 136.392 333.785 136.321 333.133 136.476L324.274 137.581C323.174 137.718 322.007 137.847 320.997 137.395C319.986 136.942 319.262 135.678 319.798 134.718C321.303 132.022 318.208 128.616 316.833 125.853C313.13 118.415 308.72 111.341 303.663 104.728C303.339 104.388 303.137 103.953 303.086 103.488L305.6 103.571C304.751 100.559 303.351 97.2625 300.392 96.1607C298.725 95.5398 296.878 95.7545 295.1 95.8506C290.005 96.1259 284.542 95.365 279.5 94.5938Z" fill="#AECADA"/>
<path d="M295.104 26.7141C296.437 28.1145 297.931 29.5992 299.86 29.8433C303.267 30.2745 305.717 26.7895 307.276 23.7625C307.334 24.5342 307.694 25.2532 308.279 25.7665C308.865 26.2799 309.63 26.5471 310.411 26.5113C311.252 26.3713 312.055 26.0609 312.769 25.5996C319.52 21.9506 327.081 20.0173 334.774 19.9732C334.7 19.3968 334.844 18.8138 335.18 18.3366C335.515 17.8594 336.017 17.5219 336.589 17.3892C338.153 17.0825 339.562 18.42 340.316 19.8094C341.071 21.1988 341.541 22.8093 342.74 23.8492C343.939 24.8892 346.259 24.8439 346.733 23.3379C347.188 21.8921 345.665 20.6591 344.4 19.8067C343.134 18.9542 341.801 17.3765 342.653 16.1186C349.116 14.7034 355.62 13.2829 362.234 13.0016C363.36 13.0404 364.482 12.8492 365.53 12.44C366.539 11.9504 367.341 10.8391 367.069 9.76066C365.626 10.0962 364.114 9.99907 362.727 9.48151C361.34 8.96395 360.14 8.04945 359.28 6.85464C368.458 6.10558 378.219 5.46709 386.352 9.73834C387.328 11.8107 382.354 13.5349 383.685 15.4041C384.109 16.0002 384.96 16.0701 385.697 16.0837C391.349 16.1875 397.033 16.2892 402.621 15.4452C404.663 15.1368 406.726 14.7014 408.776 14.9515C412.191 15.3681 415.112 17.6218 418.472 18.3566C419.839 18.6557 421.373 18.6658 422.525 17.8792C423.678 17.0925 424.173 15.3012 423.229 14.2786C426.392 11.2121 431.642 11.9721 435.815 13.4402C439.989 14.9083 443.942 17.2758 448.359 17.603C451.526 17.8377 454.738 16.995 457.867 17.5307C459.834 17.8672 461.664 18.7326 463.586 19.2643C467.222 20.2699 471.068 20.0576 474.842 20.106C484.473 20.2343 493.999 22.1065 502.948 25.6298C504.112 26.0047 505.178 26.628 506.072 27.4556C506.905 28.3376 507.329 29.7081 506.77 30.7803L497.523 29.4439C498.394 31.1404 500.648 31.4295 502.478 32.0147C504.309 32.5999 506.207 34.5993 505.107 36.1603C503.123 35.5357 501.326 37.497 500.324 39.3015C499.322 41.1061 498.101 43.2672 496.023 43.3772C494.162 43.4756 491.911 41.9081 490.698 43.3077C492.374 45.399 493.809 47.6685 494.977 50.0742C496.175 52.5439 497.029 55.6559 495.409 57.878C495.154 58.2747 494.768 58.5712 494.316 58.7166C492.993 59.0478 492.133 57.447 491.184 56.4767C489.989 55.254 488.18 54.9077 486.561 54.3342C484.942 53.7608 483.237 52.6327 483.11 50.9363C483.031 49.8809 483.595 48.8997 484.01 47.9243C484.707 46.28 485.012 44.4989 484.901 42.7192C484.81 41.2874 484.404 39.798 483.365 38.7977C482.325 37.7973 480.53 37.4799 479.414 38.3962C478.893 38.8237 478.476 39.5075 477.8 39.5331C476.605 39.5783 475.687 37.5178 474.726 38.2212C474.839 38.9706 474.682 39.7355 474.282 40.382C471.413 42.8497 467.006 41.8057 463.308 42.6775C461.549 43.1753 459.865 43.9026 458.301 44.8402C457.716 45.0877 457.218 45.5012 456.87 46.0284C456.408 46.9157 456.917 48.0522 457.731 48.6422C458.594 49.1656 459.564 49.493 460.57 49.6006C465.079 50.4453 469.653 51.7527 473.213 54.6172C476.773 57.4816 479.107 62.2167 477.981 66.6167L469.089 58.2133C469.427 61.7417 469.618 65.2798 469.664 68.8277C469.722 69.5204 469.625 70.2172 469.382 70.8693C468.748 72.2541 467.03 72.7201 465.525 73.0258C465.106 73.1045 464.709 73.2699 464.359 73.5112C464.01 73.7525 463.716 74.0642 463.497 74.4258C463.278 74.7874 463.139 75.1908 463.088 75.6094C463.038 76.0281 463.078 76.4525 463.205 76.8548C463.74 78.5792 465.074 79.9237 466.295 81.2633C467.516 82.603 468.718 84.1255 468.878 85.9223C469.038 87.7192 467.667 89.7445 465.848 89.6195C464.469 89.5248 463.446 88.3037 462.857 87.0662C462.269 85.8288 461.919 84.4504 461.035 83.3989C458.36 80.2166 452.351 81.58 449.954 78.1873C449.343 78.8727 448.92 79.7012 448.724 80.5941C448.528 81.487 448.565 82.4146 448.834 83.289C449.949 82.5986 451.475 83.24 452.313 84.2431C453.15 85.2463 453.545 86.5323 454.203 87.6589C455.091 89.1792 456.504 90.527 456.628 92.2783C456.595 92.9406 456.606 93.6042 456.661 94.265C456.882 95.3262 457.788 96.0881 458.417 96.9751C459.88 99.0389 459.808 101.874 458.865 104.216C457.922 106.558 456.228 108.514 454.55 110.411C451.619 113.725 448.628 117.019 445.154 119.771C444.163 120.556 443.105 121.328 442.487 122.426C441.87 123.523 441.838 125.064 442.787 125.899C442.108 125.933 440.89 126.263 440.211 126.297C439.973 123.603 439.921 120.896 440.056 118.195C437.377 116.923 434.492 120.33 434.838 123.25C435.183 126.17 437.318 128.513 438.839 131.039C439.95 132.886 440.776 135.04 440.405 137.158C440.034 139.277 438.122 141.231 435.957 141.044C432.513 140.747 431.073 135.856 427.662 135.297C427.361 135.227 427.046 135.258 426.764 135.385C426.258 135.66 426.17 136.33 426.142 136.9C426.002 139.7 425.881 142.612 426.987 145.193C428.603 148.97 432.78 152.142 431.904 156.151C427.184 153.981 424.73 148.746 423.616 143.717C422.502 138.689 422.316 133.41 420.319 128.656C418.803 130.579 415.615 128.989 414.229 126.972C412.916 125.06 412.107 122.848 410.833 120.911C409.558 118.973 407.606 117.237 405.271 117.131C402.823 117.019 400.7 118.681 398.833 120.251C397.298 121.542 395.721 122.883 394.824 124.668C393.518 127.265 393.86 130.326 393.797 133.226C393.729 136.36 393.057 139.668 390.897 141.963C388.737 144.258 384.75 145.057 382.367 142.989C381.123 141.909 380.521 140.296 379.984 138.747C377.399 131.282 375.245 123.678 373.534 115.971C373.134 117.73 371.572 119.997 370.08 118.961C369.745 118.683 369.474 118.337 369.284 117.947C366.502 113.282 361.348 110.484 356.141 108.806C350.934 107.128 345.455 106.345 340.306 104.502C337.421 103.468 334.664 102.11 332.092 100.454C331.436 101.407 331.053 102.518 330.984 103.669C330.914 104.819 331.161 105.967 331.697 106.991C332.839 108.991 335.424 110.149 337.637 109.449C338.78 109.088 339.746 108.303 340.88 107.915C342.015 107.527 343.537 107.718 344.033 108.799C344.508 109.834 343.791 111.086 344.147 112.166C344.689 113.812 347.198 113.938 348.076 115.436C348.728 116.55 348.191 118.03 347.259 118.929C346.327 119.828 345.083 120.321 343.945 120.947C340.253 122.977 337.628 126.444 334.401 129.141C331.175 131.838 326.622 133.807 322.777 132.077C323.694 127.486 318.165 124.116 317.148 119.545C316.813 118.041 316.986 116.443 316.508 114.978C315.816 112.855 313.913 111.396 312.351 109.788C310.457 107.816 308.981 105.488 308.011 102.943C307.041 100.398 306.596 97.6865 306.702 94.9684C306.787 93.0797 307.138 91.1602 306.703 89.3192C306.268 87.4783 304.727 85.6964 302.817 85.7799C298.456 85.9704 292.961 86.2913 290.673 82.6139C289.856 81.3014 289.501 79.3791 290.682 78.3736C291.515 77.6643 292.744 77.7311 293.838 77.8375L303.665 78.7937C305.963 79.0173 308.448 79.2018 310.42 78.0134C312.392 76.8249 313.247 73.6703 311.421 72.272C310.086 71.2504 307.696 71.3058 307.308 69.6814C306.985 68.3286 308.499 66.7937 307.681 65.6631C307.095 64.8524 305.777 65.0773 304.978 65.685C304.179 66.2927 303.6 67.1815 302.706 67.6416C301.138 68.4488 299.264 67.6806 297.577 67.1585C295.89 66.6364 293.628 66.592 292.81 68.1418C291.895 69.8751 293.622 72.1463 292.713 73.8831C291.513 76.1794 287.446 74.8722 285.76 76.8474C283.825 79.1139 287.077 82.4935 286.424 85.389C285.591 85.7971 284.665 85.9845 283.737 85.9329C282.808 85.8813 281.91 85.5925 281.128 85.0947C280.359 84.5774 279.746 83.8637 279.355 83.0295C278.963 82.1953 278.808 81.2718 278.905 80.3571C279.066 79.0545 279.753 77.725 279.293 76.4941C278.921 75.4989 277.911 74.9064 276.972 74.3932L267.422 69.1738C266.536 70.8006 267.656 72.8173 269.058 74.0392C270.46 75.261 272.216 76.1813 273.137 77.7893C273.719 78.9035 273.85 80.1955 273.502 81.4016C273.154 82.6077 272.353 83.6369 271.264 84.2791C271.128 84.3723 270.972 84.4351 270.809 84.4633C270.645 84.4915 270.478 84.4844 270.317 84.4424C270.165 84.3538 270.032 84.2359 269.927 84.0957C269.821 83.9554 269.745 83.7956 269.704 83.6258C268.019 79.361 265.489 75.1561 261.444 72.9282C257.4 70.7004 251.589 71.1584 248.936 74.9114C248.306 75.8028 247.884 76.8189 247.335 77.7613C244.419 82.7683 238.169 85.1394 232.329 84.9845C231.758 85.0158 231.19 84.8837 230.692 84.604C229.748 83.9593 229.791 82.5912 229.935 81.4658L230.548 76.6896C230.671 75.7305 230.85 74.6704 231.617 74.0717C232.699 73.2278 234.26 73.7603 235.637 73.7407C236.681 73.6924 237.685 73.3278 238.512 72.6963C239.339 72.0649 239.95 71.1972 240.262 70.2107C240.54 69.2146 240.538 68.1622 240.257 67.167C239.975 66.1717 239.424 65.2714 238.663 64.563C238.032 63.9764 237.184 63.2395 237.518 62.4487C237.651 62.2299 237.831 62.0427 238.045 61.9001C238.259 61.7575 238.502 61.663 238.757 61.6233C241.232 60.9125 243.847 60.7262 246.28 59.8875C248.714 59.0487 251.074 57.3328 251.65 54.8485C251.827 54.0872 251.907 53.1649 252.598 52.7875C252.945 52.6426 253.318 52.5673 253.694 52.566C255.014 52.3803 256.215 51.7129 257.062 50.6951C257.908 49.6773 258.339 48.3829 258.269 47.0666C259.435 46.2606 261.069 46.8535 262.198 47.7108C263.326 48.5681 264.322 49.7007 265.695 50.0703C268.253 50.759 270.726 48.5185 273.377 48.5081C274.492 48.5038 275.646 48.8937 276.695 48.5198C277.759 48.1408 278.394 47.0938 279.21 46.3202C280.026 45.5467 281.458 45.0749 282.212 45.9082L281.57 41.2065C282.862 41.5294 284.21 41.5752 285.521 41.3406C286.833 41.106 288.079 40.5966 289.175 39.8465L280.881 37.0746C280.592 37.0033 280.326 36.8624 280.105 36.6645C279.502 36.0222 280.101 35.0214 280.592 34.2914C281.765 32.5449 281.962 29.668 280.033 28.7985C278.716 28.205 277.205 28.9174 275.941 29.6144L269.887 32.953C269.695 34.0911 271.102 34.7362 271.974 35.5028C272.502 35.9666 272.875 36.5775 273.045 37.255C273.215 37.9326 273.174 38.6452 272.927 39.2993C272.681 39.9534 272.24 40.5184 271.662 40.92C271.085 41.3216 270.398 41.5411 269.692 41.5497C270.091 42.0623 270.368 42.657 270.503 43.2898C270.638 43.9227 270.627 44.5774 270.471 45.2055L266.398 45.4953C265.941 45.5862 265.466 45.4945 265.077 45.2402C264.641 44.8575 264.7 44.187 264.599 43.6194C264.356 42.2496 263 41.2895 261.616 41.0433C260.231 40.7971 258.816 41.1127 257.445 41.4242C256.863 41.6314 256.224 41.6168 255.652 41.3833C255.325 41.1727 255.076 40.8617 254.943 40.4979C254.342 39.057 254.904 37.3633 255.869 36.131C256.834 34.8987 258.155 33.9979 259.341 32.972C262.179 30.5098 264.263 27.3118 265.36 23.7395C267.602 22.8103 269.923 21.5477 272.165 20.6185C275.622 18.8874 279.499 18.1445 283.359 18.4733L290.953 18.6168C293.201 18.6593 295.51 18.7137 297.589 19.5614C299.668 20.4092 301.494 22.2427 301.638 24.4622C301.681 24.7135 301.659 24.9715 301.574 25.2121C301.489 25.4527 301.343 25.6679 301.151 25.8376C300.857 25.996 300.525 26.0702 300.191 26.0516C298.094 26.1245 297.2 26.6412 295.104 26.7141Z" fill="#AECADA"/>
<path d="M234.579 50.2526C234.876 49.9749 235.089 49.6216 235.196 49.2317C235.303 48.8417 235.299 48.4302 235.185 48.0423C234.463 47.7667 233.678 47.696 232.917 47.838C232.157 47.98 231.452 48.3291 230.881 48.8461C230.431 49.2961 230.044 49.803 229.728 50.3537C228.73 51.9638 227.848 53.8871 228.426 55.687C228.473 55.8833 228.56 56.0683 228.68 56.2311C228.8 56.394 228.952 56.5314 229.127 56.6354C229.386 56.7383 229.666 56.7816 229.944 56.762C231.044 56.7606 232.142 56.6937 233.233 56.5618C233.903 56.4808 234.681 56.2936 234.94 55.677C235.28 54.8665 234.457 53.9492 234.697 53.1043C234.855 52.7265 235.094 52.3873 235.398 52.1104C235.549 51.971 235.665 51.7987 235.737 51.6072C235.809 51.4158 235.835 51.2104 235.812 51.0073C235.715 50.6109 235.102 50.386 234.881 50.7304" fill="#AECADA"/>
<path d="M240.279 42.9434C239.302 42.7216 238.296 42.6591 237.299 42.7583C237.078 42.7518 236.86 42.8009 236.664 42.901C236.474 43.0395 236.336 43.2368 236.273 43.4615C236.062 44.1299 236.114 44.8522 236.418 45.4846C236.721 46.1169 237.255 46.6129 237.912 46.8737C238.27 46.9551 238.613 47.0914 238.928 47.2777C239.771 47.9245 239.234 49.2465 239.393 50.2897C239.572 51.4612 240.719 52.4445 240.508 53.6109C240.343 54.5298 239.351 55.2574 239.51 56.1774C239.678 57.1409 240.914 57.4304 241.899 57.5076C242.47 57.6065 243.058 57.5399 243.592 57.3158C244.126 56.954 244.507 56.4091 244.659 55.7863C245.063 54.5986 245.232 53.3456 245.159 52.0948C245.154 51.526 245.01 50.9667 244.738 50.4655C244.441 50.0685 244.112 49.696 243.754 49.3517C241.867 47.1797 243.854 43.94 240.279 42.9434Z" fill="#AECADA"/>
<path d="M77.4824 68.9861C77.4824 68.9861 132.17 31.931 169.569 29.4649C221.169 26.0624 272 56 272 56C272 56 281.681 48.8834 288 50.5C293.667 51.9498 302 59 302 59M306 61C306 61 220.054 87.1988 177 89C131.711 90.8946 77.4824 73.4355 77.4824 73.4355" stroke="#FF9900" stroke-width="2" stroke-linecap="round" stroke-linejoin="round" stroke-dasharray="1 5"/>
<path opacity="0.1" d="M77.0056 47.0002C74.3813 46.9822 71.8565 48.0026 69.982 49.8388C68.1075 51.675 67.0355 54.1779 67 56.8013C67 64.1549 77.0056 75 77.0056 75C77.0056 75 87 64.1549 87 56.8013C86.9674 54.1789 85.8979 51.676 84.0251 49.8395C82.1524 48.003 79.6288 46.9822 77.0056 47.0002ZM77.0056 60.3041C76.3157 60.2908 75.645 60.0741 75.0778 59.6813C74.5105 59.2884 74.072 58.7368 73.8171 58.0957C73.5622 57.4546 73.5024 56.7525 73.6451 56.0775C73.7878 55.4026 74.1266 54.7847 74.6192 54.3016C75.1118 53.8184 75.7361 53.4915 76.4138 53.3617C77.0915 53.2319 77.7925 53.3051 78.4288 53.5721C79.0651 53.839 79.6084 54.2879 79.9905 54.8624C80.3726 55.4369 80.5765 56.1114 80.5766 56.8013C80.5767 57.267 80.4839 57.728 80.3036 58.1575C80.1233 58.5869 79.8592 58.9761 79.5267 59.3022C79.1942 59.6284 78.8 59.885 78.3671 60.057C77.9342 60.229 77.4713 60.313 77.0056 60.3041Z" fill="black"/>
<path d="M77.0056 46.0003C74.3805 45.9793 71.8539 46.9992 69.9788 48.8367C68.1036 50.6743 67.0326 53.1799 67 55.8053C67 63.1506 77.0056 74 77.0056 74C77.0056 74 87 63.1506 87 55.8053C86.9704 53.1809 85.9018 50.6753 84.0284 48.8374C82.1551 46.9996 79.6297 45.9793 77.0056 46.0003ZM77.0056 59.2982C76.3152 59.2849 75.6441 59.0679 75.0766 58.6744C74.5091 58.2808 74.0706 57.7284 73.8161 57.0863C73.5615 56.4443 73.5023 55.7414 73.6459 55.0659C73.7896 54.3904 74.1296 53.7723 74.6233 53.2894C75.1169 52.8065 75.7423 52.4803 76.4207 52.3518C77.0992 52.2232 77.8006 52.298 78.4366 52.5668C79.0727 52.8356 79.6152 53.2864 79.9959 53.8626C80.3767 54.4388 80.5787 55.1146 80.5766 55.8053C80.5797 56.2731 80.4891 56.7367 80.3102 57.1689C80.1313 57.6011 79.8676 57.9932 79.5348 58.3218C79.202 58.6505 78.8067 58.9092 78.3723 59.0827C77.938 59.2562 77.4732 59.3409 77.0056 59.3319V59.2982Z" fill="#FF9900"/>
<path opacity="0.1" d="M272.006 32.0796C269.381 32.0623 266.856 33.0434 264.982 34.8088C263.107 36.5742 262.036 38.9806 262 41.5028C262 48.5729 272.006 59 272.006 59C272.006 59 282 48.5729 282 41.5028C281.967 38.9815 280.898 36.5751 279.025 34.8094C277.152 33.0437 274.629 32.0623 272.006 32.0796ZM272.006 44.8706C271.316 44.8578 270.645 44.6495 270.078 44.2718C269.511 43.8941 269.072 43.3638 268.817 42.7474C268.562 42.131 268.502 41.456 268.645 40.807C268.788 40.158 269.127 39.564 269.619 39.0995C270.112 38.635 270.736 38.3206 271.414 38.1959C272.092 38.0711 272.793 38.1414 273.429 38.3981C274.065 38.6548 274.608 39.0864 274.991 39.6387C275.373 40.1911 275.576 40.8396 275.577 41.5028C275.577 41.9506 275.484 42.3939 275.304 42.8067C275.123 43.2196 274.859 43.5938 274.527 43.9074C274.194 44.221 273.8 44.4677 273.367 44.633C272.934 44.7984 272.471 44.8792 272.006 44.8706Z" fill="black"/>
<path d="M272.006 31.0002C269.381 30.9829 266.856 31.964 264.982 33.7294C263.107 35.4948 262.036 37.9012 262 40.4234C262 47.4935 272.006 57.9206 272.006 57.9206C272.006 57.9206 282 47.4935 282 40.4234C281.967 37.9021 280.898 35.4957 279.025 33.73C277.152 31.9643 274.629 30.9829 272.006 31.0002ZM272.006 43.7912C271.316 43.7784 270.645 43.5701 270.078 43.1924C269.511 42.8147 269.072 42.2844 268.817 41.668C268.562 41.0516 268.502 40.3766 268.645 39.7276C268.788 39.0786 269.127 38.4846 269.619 38.0201C270.112 37.5556 270.736 37.2412 271.414 37.1164C272.092 36.9917 272.793 37.062 273.429 37.3187C274.065 37.5754 274.608 38.007 274.991 38.5593C275.373 39.1117 275.576 39.7601 275.577 40.4234C275.577 40.8712 275.484 41.3145 275.304 41.7273C275.123 42.1402 274.859 42.5144 274.527 42.828C274.194 43.1416 273.8 43.3883 273.367 43.5536C272.934 43.719 272.471 43.7998 272.006 43.7912Z" fill="#FF9900"/>
<path opacity="0.1" d="M305.006 37.0802C302.382 37.06 299.858 38.039 297.983 39.8034C296.108 41.5677 295.036 43.9739 295 46.4962C295 53.569 305.006 64 305.006 64C305.006 64 315 53.569 315 46.4962C314.967 43.9749 313.898 41.5687 312.025 39.804C310.151 38.0394 307.628 37.06 305.006 37.0802ZM305.006 49.8652C304.316 49.8524 303.645 49.6441 303.078 49.2662C302.511 48.8884 302.072 48.3578 301.817 47.7412C301.562 47.1246 301.502 46.4493 301.645 45.8001C301.788 45.1509 302.127 44.5567 302.619 44.092C303.112 43.6273 303.736 43.3128 304.414 43.1879C305.092 43.0631 305.793 43.1335 306.429 43.3903C307.065 43.6471 307.608 44.0788 307.991 44.6314C308.373 45.1839 308.577 45.8326 308.577 46.4962C308.577 46.9441 308.484 47.3876 308.304 47.8006C308.123 48.2136 307.859 48.5879 307.527 48.9017C307.194 49.2154 306.8 49.4621 306.367 49.6276C305.934 49.793 305.471 49.8738 305.006 49.8652Z" fill="black"/>
<path d="M305.006 36.0003C302.382 35.9801 299.858 36.9591 297.983 38.7235C296.108 40.4878 295.036 42.894 295 45.4163C295 52.4891 305.006 62.9201 305.006 62.9201C305.006 62.9201 315 52.4891 315 45.4163C314.967 42.895 313.898 40.4888 312.025 38.7241C310.151 36.9595 307.628 35.9801 305.006 36.0003ZM305.006 48.7853C304.316 48.7726 303.645 48.5642 303.078 48.1863C302.511 47.8085 302.072 47.2779 301.817 46.6613C301.562 46.0447 301.502 45.3694 301.645 44.7202C301.788 44.071 302.127 43.4768 302.619 43.0121C303.112 42.5474 303.736 42.2329 304.414 42.108C305.092 41.9832 305.793 42.0536 306.429 42.3104C307.065 42.5672 307.608 42.9989 307.991 43.5515C308.373 44.104 308.577 44.7528 308.577 45.4163C308.577 45.8642 308.484 46.3077 308.304 46.7207C308.123 47.1337 307.859 47.5081 307.527 47.8218C307.194 48.1355 306.8 48.3822 306.367 48.5477C305.934 48.7131 305.471 48.7939 305.006 48.7853Z" fill="#FF9900"/>
<g filter="url(#filter0_f)">
<circle cx="77" cy="74" r="6" fill="#FF9900" fill-opacity="0.5"/>
</g>
<g filter="url(#filter1_f)">
<circle cx="305" cy="62" r="6" fill="#FF9900" fill-opacity="0.5"/>
</g>
<g filter="url(#filter2_f)">
<circle cx="273" cy="57" r="6" fill="#FF9900" fill-opacity="0.5"/>
</g>
<g filter="url(#filter3_f)">
<circle cx="364" cy="72" r="6" fill="#FF9900" fill-opacity="0.5"/>
</g>
<g filter="url(#filter4_f)">
<circle cx="398" cy="47" r="6" fill="#FF9900" fill-opacity="0.5"/>
</g>
<path d="M397 45.6421C397 45.6421 371.641 32.156 355 35.1421C333.5 39 306.5 60.6421 306.5 60.6421C306.5 60.6421 327.04 57.9549 339.5 60.6421C349.488 62.7961 363 72.1421 363 72.1421" stroke="#FF9900" stroke-width="2" stroke-linecap="round" stroke-dasharray="1 5"/>
<defs>
<filter id="filter0_f" x="63" y="60" width="28" height="28" filterUnits="userSpaceOnUse" color-interpolation-filters="sRGB">
<feFlood flood-opacity="0" result="BackgroundImageFix"/>
<feBlend mode="normal" in="SourceGraphic" in2="BackgroundImageFix" result="shape"/>
<feGaussianBlur stdDeviation="4" result="effect1_foregroundBlur"/>
</filter>
<filter id="filter1_f" x="291" y="48" width="28" height="28" filterUnits="userSpaceOnUse" color-interpolation-filters="sRGB">
<feFlood flood-opacity="0" result="BackgroundImageFix"/>
<feBlend mode="normal" in="SourceGraphic" in2="BackgroundImageFix" result="shape"/>
<feGaussianBlur stdDeviation="4" result="effect1_foregroundBlur"/>
</filter>
<filter id="filter2_f" x="259" y="43" width="28" height="28" filterUnits="userSpaceOnUse" color-interpolation-filters="sRGB">
<feFlood flood-opacity="0" result="BackgroundImageFix"/>
<feBlend mode="normal" in="SourceGraphic" in2="BackgroundImageFix" result="shape"/>
<feGaussianBlur stdDeviation="4" result="effect1_foregroundBlur"/>
</filter>
<filter id="filter3_f" x="350" y="58" width="28" height="28" filterUnits="userSpaceOnUse" color-interpolation-filters="sRGB">
<feFlood flood-opacity="0" result="BackgroundImageFix"/>
<feBlend mode="normal" in="SourceGraphic" in2="BackgroundImageFix" result="shape"/>
<feGaussianBlur stdDeviation="4" result="effect1_foregroundBlur"/>
</filter>
<filter id="filter4_f" x="384" y="33" width="28" height="28" filterUnits="userSpaceOnUse" color-interpolation-filters="sRGB">
<feFlood flood-opacity="0" result="BackgroundImageFix"/>
<feBlend mode="normal" in="SourceGraphic" in2="BackgroundImageFix" result="shape"/>
<feGaussianBlur stdDeviation="4" result="effect1_foregroundBlur"/>
</filter>
</defs>
</svg>
