<svg width="50" height="50" viewBox="0 0 50 50" fill="none" xmlns="http://www.w3.org/2000/svg">
<g clip-path="url(#clip0)">
<path d="M13.5423 13.7695C12.967 13.1941 12.0341 13.1941 11.4588 13.7695C10.8835 14.3448 10.8835 15.2774 11.4588 15.8527C12.0341 16.4281 12.967 16.4281 13.5423 15.8527C14.1175 15.2774 14.1175 14.3448 13.5423 13.7695Z" fill="#FF9900"/>
<path d="M23.958 13.7695C23.3828 13.1943 22.4501 13.1943 21.8748 13.7695C21.2995 14.3448 21.2995 15.2775 21.8748 15.8527C22.4501 16.428 23.3828 16.428 23.958 15.8527C24.5333 15.2775 24.5333 14.3448 23.958 13.7695Z" fill="#FF9900"/>
<path d="M31.249 26.2695C30.6738 25.6943 29.7411 25.6943 29.1658 26.2695C28.5906 26.8448 28.5906 27.7775 29.1658 28.3527C29.7411 28.928 30.6738 28.928 31.249 28.3527C31.8243 27.7775 31.8243 26.8448 31.249 26.2695Z" fill="#FF9900"/>
<path d="M41.6673 26.2695C41.092 25.6941 40.1591 25.6941 39.5838 26.2695C39.0085 26.8448 39.0085 27.7774 39.5838 28.3527C40.1591 28.9281 41.092 28.9281 41.6673 28.3527C42.2425 27.7774 42.2425 26.8448 41.6673 26.2695Z" fill="#FF9900"/>
<path d="M45.834 45.6577L39.415 42.4545C38.1066 42.7738 36.7645 42.9356 35.4176 42.9363C27.3705 42.9363 20.834 37.3242 20.834 30.4363C20.834 23.5481 27.3705 17.9363 35.4176 17.9363C43.4643 17.9363 50.0008 23.5481 50.0008 30.4363C50.0008 33.7437 48.5294 36.8294 45.834 39.1731V45.6577ZM39.6492 40.2409L43.7508 42.2981V38.1966L44.1414 37.8842C46.5763 35.9051 47.9176 33.2619 47.9176 30.4363C47.9176 24.6941 42.3054 20.0195 35.4176 20.0195C28.5294 20.0195 22.9176 24.6941 22.9176 30.4363C22.9176 36.1782 28.5294 40.8528 35.4176 40.8528C36.7188 40.8547 38.015 40.6838 39.2716 40.345L39.6492 40.2409Z" fill="#FF9900"/>
<path d="M6.25 36.2827V30.0976C2.26555 27.3113 0 23.2876 0 18.9777C0 10.931 7.94258 4.39453 17.7082 4.39453C27.4738 4.39453 35.4168 10.931 35.4168 18.9777L33.3332 19.017V18.9777C33.3332 12.0899 26.3283 6.47774 17.7082 6.47774C9.08852 6.47774 2.08321 12.0899 2.08321 18.9777C2.08321 22.7409 4.19273 26.2695 7.86476 28.6655L8.33321 28.978V32.9231L12.5912 30.8006L12.9688 30.8918C15.8607 31.6177 18.8808 31.6711 21.7968 31.0482L22.2397 33.0795C19.138 33.7421 15.9286 33.7154 12.8384 33.0013L6.25 36.2827Z" fill="#FF9900"/>
</g>
<defs>
<clipPath id="clip0">
<rect width="50" height="50" fill="white"/>
</clipPath>
</defs>
</svg>
