<svg width="50" height="50" viewBox="0 0 50 50" fill="none" xmlns="http://www.w3.org/2000/svg">
<path d="M44.9106 6.49451C44.5339 6.16913 44.0753 5.95304 43.5846 5.86966C43.0939 5.78627 42.5897 5.83877 42.1266 6.02147L6.08033 20.1826C5.53054 20.3986 5.06546 20.7868 4.7547 21.2891C4.44394 21.7914 4.3042 22.3809 4.3564 22.9693C4.4086 23.5577 4.64993 24.1133 5.04428 24.5531C5.43862 24.9929 5.96478 25.2932 6.544 25.409L16.0139 27.3027V39.0592C16.0134 39.6002 16.1734 40.1293 16.4738 40.5793C16.7742 41.0294 17.2013 41.3801 17.7012 41.5872C18.2011 41.7942 18.7512 41.8482 19.2818 41.7424C19.8125 41.6365 20.2997 41.3756 20.6819 40.9926L26.0079 35.6664L33.9737 42.6765C34.4691 43.1164 35.1084 43.3597 35.771 43.3605C36.059 43.3602 36.3452 43.3148 36.6192 43.226C37.0711 43.0826 37.4776 42.8233 37.798 42.4738C38.1184 42.1244 38.3417 41.697 38.4454 41.2344L45.7917 9.17713C45.9036 8.69214 45.8806 8.18578 45.7254 7.71288C45.5701 7.23999 45.2884 6.81859 44.9108 6.49432L44.9106 6.49451ZM6.69107 22.7621C6.67842 22.6774 6.6962 22.5909 6.74125 22.5181C6.78631 22.4452 6.85572 22.3907 6.93717 22.3642L37.0991 10.5148L16.9141 25.0928L7.00358 23.1105C6.91868 23.0988 6.84068 23.0574 6.78346 22.9936C6.72624 22.9298 6.69351 22.8478 6.69107 22.7621ZM19.0245 39.3355C18.9698 39.3901 18.9002 39.4273 18.8245 39.4424C18.7487 39.4575 18.6702 39.4497 18.5988 39.4202C18.5275 39.3906 18.4665 39.3406 18.4235 39.2763C18.3806 39.2121 18.3577 39.1366 18.3577 39.0594V28.9344L24.245 34.1152L19.0245 39.3355ZM36.1608 40.7109C36.1457 40.7769 36.1138 40.8378 36.068 40.8878C36.0223 40.9377 35.9644 40.9749 35.9 40.9957C35.8356 41.0164 35.7669 41.0201 35.7006 41.0064C35.6343 40.9926 35.5727 40.9619 35.5219 40.9172L19.0622 26.4326L43.4731 8.80252L36.1608 40.7109Z" fill="#FF9900"/>
</svg>
