<svg width="50" height="50" viewBox="0 0 50 50" fill="none" xmlns="http://www.w3.org/2000/svg">
<path d="M35.5264 28.8477C35.2788 28.7085 34.9982 28.5506 34.6602 28.3471C34.4715 28.2332 34.2343 28.0774 33.9829 27.9125C32.6927 27.0656 31.715 26.4662 30.8828 26.4662C30.6879 26.4662 30.5035 26.4992 30.3355 26.564C29.6063 26.8448 29.0076 27.5949 28.4286 28.3202C28.2164 28.5859 27.9127 28.9664 27.7284 29.1364C26.9974 29.0035 25.4555 28.0483 23.7916 26.3845C22.1258 24.7186 21.1704 23.175 21.0393 22.4457C21.2091 22.2607 21.5925 21.9548 21.8599 21.7412C22.5824 21.1643 23.3296 20.5679 23.6119 19.841C23.9721 18.9071 23.312 17.7902 22.2637 16.1932C22.0987 15.9418 21.9429 15.7044 21.8298 15.5172C21.6256 15.1778 21.4678 14.8971 21.3285 14.6496C20.7569 13.6338 20.3793 12.9624 18.9603 12.9624C18.0393 12.9624 16.7371 13.8327 15.8551 14.6958C14.5732 15.9504 13.8672 17.3988 13.8672 18.7771C13.8696 22.5207 15.9589 26.8113 19.5993 30.5531C19.6056 30.5593 19.6118 30.561 19.6183 30.5673C23.3601 34.2078 27.653 36.2899 31.3965 36.2899H31.398C32.7744 36.2899 34.2233 35.592 35.4778 34.3108C36.3416 33.4289 37.2131 32.1362 37.2131 31.2158C37.2132 29.7969 36.5422 29.4194 35.5264 28.8477ZM31.3969 34.3558C28.2082 34.3535 24.3185 32.4211 20.9899 29.1864C17.7549 25.8575 15.8225 21.9675 15.8204 18.7791C15.8204 16.8505 18.3231 15.0168 18.9776 14.9163C19.1113 14.9169 19.1814 14.9248 19.2148 14.9305C19.3014 15.0301 19.4733 15.3357 19.6265 15.6079C19.765 15.8542 19.9376 16.1608 20.1573 16.526C20.2901 16.746 20.4558 16.9982 20.6311 17.2652C20.9628 17.7707 21.6297 18.7867 21.7421 19.2204C21.5541 19.4865 20.9708 19.9521 20.6415 20.215C19.7986 20.888 19.0707 21.469 19.0707 22.2902C19.0728 24.2738 21.6277 26.9828 22.4107 27.7658C23.1938 28.5488 25.9027 31.1038 27.8905 31.1057C28.7064 31.1031 29.2851 30.3782 29.9552 29.5388C30.2194 29.2079 30.6879 28.6211 30.9551 28.4341C31.3883 28.5457 32.4056 29.2134 32.9114 29.5455C33.1784 29.7207 33.4306 29.8862 33.652 30.0199C34.0158 30.2388 34.3224 30.4114 34.5688 30.55C34.8408 30.7031 35.1466 30.8752 35.2462 30.9617C35.2519 30.995 35.2597 31.0651 35.2604 31.1987C35.1591 31.8526 33.3248 34.3535 31.3969 34.3558Z" fill="#FF9900"/>
<path d="M44.9576 25.0935C44.889 19.8161 42.7706 14.8291 38.9929 11.0513C35.1455 7.20385 30.0668 5.0849 24.6924 5.0849C19.5044 5.0849 14.6511 7.08119 11.0263 10.7059C7.80971 13.9225 5.83627 18.2125 5.46918 22.7859C5.12104 27.1249 6.22563 31.516 8.58432 35.2079L5.36342 43.9142C5.22826 44.2796 5.32319 44.6905 5.60512 44.9595C5.79037 45.1364 6.03305 45.2296 6.27953 45.2296C6.40805 45.2296 6.53774 45.1924 6.66069 45.1402L15.0493 41.5704C18.2516 43.5636 21.9133 44.5909 25.6733 44.5909H25.6737C30.8608 44.5909 35.714 42.6184 39.3383 38.9941C43.0305 35.3018 45.0262 30.3804 44.9576 25.0935ZM37.9571 37.6368C34.7014 40.8924 30.3389 42.6853 25.6732 42.6852C22.1211 42.6851 18.6653 41.6455 15.6791 39.6785C15.5172 39.5718 15.3301 39.5175 15.1419 39.5175C15.0127 39.5175 14.883 39.5431 14.7607 39.5951L7.97983 42.471L10.5872 35.4231C10.6963 35.1281 10.6567 34.7986 10.4808 34.5379C5.68823 27.4378 6.49848 17.9958 12.4074 12.087C15.6632 8.83119 20.0261 7.03803 24.6924 7.03803C29.5451 7.03803 34.1332 8.95375 37.6118 12.4324C41.0275 15.848 42.9426 20.3535 43.0045 25.1189C43.0664 29.8746 41.2738 34.3202 37.9571 37.6368Z" fill="#FF9900"/>
</svg>
