<svg width="350" height="351" viewBox="0 0 350 351" fill="none" xmlns="http://www.w3.org/2000/svg">
<path d="M311.759 203.298L333.502 209.993L331.442 216.683C330.853 218.595 329.894 220.169 328.565 221.405C327.243 222.655 325.655 223.457 323.802 223.813C321.958 224.172 320.026 224.04 318.005 223.418L317.005 223.11C314.984 222.487 313.316 221.516 312 220.195C310.682 218.885 309.822 217.339 309.422 215.559C309.022 213.78 309.11 211.937 309.685 210.033L311.759 203.298ZM328.493 213.356L313.979 208.886L313.312 211.051C312.772 212.804 312.932 214.319 313.792 215.597C314.652 216.876 316.144 217.853 318.268 218.529L319.418 218.883C321.628 219.563 323.442 219.62 324.859 219.054C326.286 218.491 327.27 217.328 327.813 215.566L328.493 213.356Z" fill="#006097" fill-opacity="0.29"/>
<path d="M303.254 250.614L307.745 242.815L302.465 239.774L297.193 248.927L293.93 247.048L301.541 233.833L321.255 245.187L313.66 258.375L310.37 256.48L315.626 247.354L310.927 244.648L306.436 252.447L303.254 250.614Z" fill="#006097" fill-opacity="0.29"/>
<path d="M286.156 264.825L279.539 272.26L276.726 269.757L286.46 258.82L303.454 273.945L300.338 277.446L286.156 264.825Z" fill="#006097" fill-opacity="0.29"/>
<path d="M263.753 281.946L267.377 278.972L281.809 296.558L278.186 299.532L263.753 281.946Z" fill="#006097" fill-opacity="0.29"/>
<path d="M249.955 298.788L253.769 316.245L249.209 318.783L245.069 295.051L249.343 292.673L267.3 308.716L262.753 311.246L249.955 298.788Z" fill="#006097" fill-opacity="0.29"/>
<path d="M214.571 318.461L223.221 315.976L221.538 310.119L211.386 313.036L210.346 309.417L225.003 305.205L231.286 327.071L216.659 331.274L215.611 327.624L225.732 324.716L224.235 319.505L215.585 321.99L214.571 318.461Z" fill="#006097" fill-opacity="0.29"/>
<path d="M188.857 321.634L192.584 321.403L192.07 313.091L196.749 312.802L198.152 335.509L189.715 336.03C187.033 336.196 184.927 335.726 183.397 334.62C181.868 333.515 181.036 331.87 180.901 329.687C180.805 328.138 181.063 326.822 181.675 325.741C182.276 324.67 183.239 323.786 184.563 323.089L179.077 314.113L179.064 313.895L184.085 313.585L188.857 321.634ZM192.818 325.193L189.044 325.426C187.869 325.499 186.978 325.851 186.37 326.484C185.763 327.127 185.491 327.973 185.556 329.023C185.622 330.094 185.981 330.917 186.633 331.493C187.274 332.069 188.223 332.318 189.481 332.24L193.239 332.008L192.818 325.193Z" fill="#006097" fill-opacity="0.29"/>
<path d="M154.488 325.023L148.13 334.353L143.075 333.509L152.831 320.438L154.19 312.3L158.89 313.086L157.531 321.223L162.509 336.755L157.438 335.908L154.488 325.023Z" fill="#006097" fill-opacity="0.29"/>
<path d="M115.786 300.543L120.009 302.576L110.143 323.076L105.92 321.043L115.786 300.543Z" fill="#006097" fill-opacity="0.29"/>
<path d="M89.9117 284.653L93.6923 287.425L92.2023 304.892L101.052 292.819L104.832 295.59L91.3826 313.939L87.602 311.168L89.0979 293.666L80.2299 305.764L76.4619 303.002L89.9117 284.653Z" fill="#006097" fill-opacity="0.29"/>
<path d="M51.9756 273.709L56.5132 278.998L70.898 266.657L73.9502 270.215L59.5653 282.556L64.0418 287.774L61.1601 290.246L49.0939 276.181L51.9756 273.709Z" fill="#006097" fill-opacity="0.29"/>
<path d="M43.8002 244.661L48.1182 252.558L53.4648 249.634L48.3972 240.367L51.7011 238.56L59.0177 251.94L39.0571 262.855L31.7555 249.502L35.0868 247.681L40.1395 256.921L44.8966 254.32L40.5786 246.423L43.8002 244.661Z" fill="#006097" fill-opacity="0.29"/>
<path d="M34.9848 220.004L36.0025 223.597L44.0154 221.327L45.2928 225.837L23.4039 232.037L21.1003 223.904C20.3679 221.318 20.3793 219.161 21.1344 217.431C21.8896 215.701 23.3195 214.539 25.4242 213.942C26.9175 213.519 28.2576 213.492 29.4443 213.859C30.6182 214.22 31.6868 214.973 32.65 216.118L40.2537 208.849L40.4641 208.789L41.8352 213.63L34.9848 220.004ZM32.3493 224.632L31.3189 220.994C30.9981 219.861 30.4641 219.065 29.7168 218.605C28.9595 218.149 28.0747 218.064 27.0624 218.35C26.0301 218.643 25.3021 219.168 24.8782 219.927C24.4515 220.676 24.41 221.657 24.7534 222.869L25.7796 226.492L32.3493 224.632Z" fill="#006097" fill-opacity="0.29"/>
<path d="M36.3705 176.738L36.5513 181.422L21.9458 191.117L36.9034 190.54L37.0843 195.224L14.3512 196.102L14.1704 191.418L28.8065 181.705L13.8177 182.284L13.6374 177.615L36.3705 176.738Z" fill="#006097" fill-opacity="0.29"/>
<path d="M34.6613 146.041L32.9369 154.077L37.1922 156.588L36.1465 161.461L15.6797 148.408L16.5911 144.161L40.6214 140.608L39.5756 145.481L34.6613 146.041ZM29.4901 152.043L30.6834 146.482L21.7574 147.491L29.4901 152.043Z" fill="#006097" fill-opacity="0.29"/>
<path d="M34.3699 103.782L31.418 110.095L48.5867 118.123L46.6011 122.369L29.4324 114.341L26.5202 120.569L23.0808 118.96L30.9305 102.174L34.3699 103.782Z" fill="#006097" fill-opacity="0.29"/>
<path d="M60.2356 97.3004L57.576 101.16L38.8422 88.2528L41.5017 84.3928L60.2356 97.3004Z" fill="#006097" fill-opacity="0.29"/>
<path d="M72.0251 66.6241C73.6088 68.2077 74.7173 69.876 75.3507 71.629C75.9842 73.3821 76.102 75.1057 75.7043 76.7998C75.3139 78.4865 74.4448 80.0038 73.0968 81.3518C71.7637 82.685 70.2537 83.5541 68.5669 83.9592C66.8802 84.3643 65.1566 84.2612 63.3962 83.6499C61.6285 83.0311 59.9675 81.9521 58.4133 80.4126L57.6178 79.6171C56.0342 78.0335 54.9257 76.3578 54.2922 74.5901C53.6588 72.8076 53.5409 71.0766 53.9387 69.3972C54.3364 67.7031 55.2056 66.1858 56.5461 64.8452C57.8867 63.5047 59.4003 62.6392 61.0871 62.2488C62.7738 61.8437 64.5048 61.9616 66.2799 62.6024C68.055 63.2285 69.7307 64.3296 71.307 65.9059L72.0251 66.6241ZM67.9372 69.2536C66.2504 67.5669 64.6668 66.5872 63.1863 66.3147C61.7058 66.0422 60.4057 66.4657 59.2862 67.5853C58.1739 68.6975 57.7504 69.9902 58.0156 71.4633C58.2734 72.9291 59.2346 74.5017 60.8992 76.181L61.6837 76.9655C63.3262 78.608 64.9025 79.5803 66.4125 79.8823C67.9224 80.1843 69.2446 79.7681 70.3789 78.6338C71.4911 77.5216 71.911 76.2326 71.6384 74.7668C71.3585 73.2937 70.3863 71.7174 68.7216 70.0381L67.9372 69.2536Z" fill="#006097" fill-opacity="0.29"/>
<path d="M107.185 54.0283L103.158 56.4273L87.6578 48.2375L95.3186 61.0974L91.2915 63.4964L79.6483 43.9516L83.6754 41.5526L99.2051 49.7612L91.5282 36.8745L95.5419 34.4835L107.185 54.0283Z" fill="#006097" fill-opacity="0.29"/>
<path d="M132.367 38.1033L124.494 40.4625L124.343 45.4012L119.569 46.832L121.15 22.6085L125.311 21.3616L139.999 40.7097L135.225 42.1405L132.367 38.1033ZM124.617 36.4621L130.065 34.8295L124.882 27.493L124.617 36.4621Z" fill="#006097" fill-opacity="0.29"/>
<path d="M158.188 33.3645L168.117 32.6739L168.379 36.4304L153.773 37.4463L152.195 14.7511L156.871 14.4258L158.188 33.3645Z" fill="#006097" fill-opacity="0.29"/>
<path d="M203.815 30.7834L201.777 38.5357L197.244 37.344L203.028 15.3414L211.611 17.5977C213.263 18.032 214.635 18.7156 215.725 19.6484C216.825 20.5839 217.566 21.6995 217.947 22.9952C218.331 24.2808 218.336 25.6339 217.962 27.0544C217.396 29.2103 216.208 30.7182 214.398 31.5782C212.602 32.4307 210.399 32.514 207.79 31.8281L203.815 30.7834ZM204.781 27.1113L208.83 28.1758C210.029 28.491 211.015 28.4486 211.788 28.0486C212.571 27.6513 213.1 26.9287 213.376 25.881C213.659 24.803 213.571 23.8482 213.111 23.0164C212.651 22.1847 211.865 21.6117 210.752 21.2976L206.596 20.2053L204.781 27.1113Z" fill="#006097" fill-opacity="0.29"/>
<path d="M250.251 45.5397C249.177 47.5047 247.887 49.0375 246.383 50.1383C244.879 51.2391 243.258 51.8368 241.52 51.9314C239.792 52.031 238.091 51.6235 236.419 50.7089C234.765 49.8043 233.506 48.5996 232.643 47.0948C231.78 45.59 231.394 43.907 231.486 42.0457C231.583 40.1753 232.151 38.2779 233.192 36.3536L233.732 35.3666C234.806 33.4016 236.103 31.8666 237.621 30.7617C239.153 29.6527 240.781 29.0529 242.505 28.9625C244.242 28.8679 245.943 29.2753 247.606 30.1849C249.27 31.0945 250.526 32.3038 251.375 33.8127C252.238 35.3175 252.611 37.0118 252.495 38.8955C252.394 40.775 251.808 42.6927 250.739 44.6486L250.251 45.5397ZM246.578 42.3559C247.723 40.263 248.218 38.4678 248.063 36.9704C247.908 35.473 247.136 34.3445 245.747 33.5848C244.367 32.8302 243.008 32.7872 241.668 33.4558C240.334 34.1153 239.095 35.4799 237.952 37.5496L237.419 38.5229C236.305 40.561 235.815 42.347 235.95 43.881C236.084 45.415 236.856 46.5668 238.263 47.3364C239.643 48.0911 240.998 48.1316 242.328 47.4579C243.663 46.7752 244.903 45.3989 246.046 43.3293L246.578 42.3559Z" fill="#006097" fill-opacity="0.29"/>
<path d="M264.345 63.6274L271.804 70.2174L269.311 73.0394L258.339 63.3459L273.402 46.2966L276.915 49.4002L264.345 63.6274Z" fill="#006097" fill-opacity="0.29"/>
<path d="M290.441 89.5998L285.606 82.9535L280.897 84.4473L277.965 80.4166L301.344 73.8824L303.899 77.3951L290.511 97.6642L287.579 93.6334L290.441 89.5998ZM289.421 81.7434L292.767 86.3428L297.971 79.0212L289.421 81.7434Z" fill="#006097" fill-opacity="0.29"/>
<path d="M305.441 126.902L303.696 122.551L314.192 108.51L300.299 114.082L298.554 109.732L319.668 101.263L321.413 105.613L310.894 119.681L324.816 114.097L326.555 118.433L305.441 126.902Z" fill="#006097" fill-opacity="0.29"/>
<path d="M310.655 141.886L333.175 138.655L334.169 145.584C334.453 147.564 334.258 149.397 333.585 151.082C332.923 152.777 331.83 154.181 330.306 155.294C328.792 156.405 326.989 157.111 324.896 157.412L323.859 157.56C321.766 157.861 319.843 157.695 318.089 157.062C316.337 156.44 314.901 155.41 313.779 153.971C312.657 152.533 311.949 150.83 311.656 148.862L310.655 141.886ZM330.082 143.834L315.049 145.991L315.37 148.234C315.631 150.049 316.423 151.351 317.746 152.139C319.069 152.928 320.836 153.175 323.045 152.879L324.236 152.708C326.525 152.379 328.19 151.656 329.229 150.539C330.279 149.42 330.673 147.948 330.411 146.123L330.082 143.834Z" fill="#006097" fill-opacity="0.29"/>
</svg>
