<svg width="400" height="400" viewBox="0 0 400 400" fill="none" xmlns="http://www.w3.org/2000/svg">
<path d="M357.47 232.172L379.214 238.861L377.152 245.55C376.563 247.462 375.604 249.036 374.274 250.272C372.952 251.522 371.364 252.325 369.51 252.681C367.666 253.04 365.734 252.909 363.712 252.287L362.712 251.979C360.691 251.357 359.022 250.387 357.707 249.066C356.389 247.756 355.53 246.211 355.13 244.432C354.73 242.652 354.818 240.81 355.394 238.906L357.47 232.172ZM374.205 242.224L359.688 237.759L359.021 239.924C358.481 241.676 358.641 243.191 359.5 244.469C360.36 245.747 361.852 246.723 363.977 247.399L365.126 247.752C367.337 248.432 369.151 248.489 370.568 247.922C371.995 247.359 372.98 246.196 373.523 244.434L374.205 242.224Z" fill="white"/>
<path d="M347.454 284.065L351.949 276.268L346.667 273.229L341.391 282.38L338.127 280.502L345.744 267.29L365.463 278.636L357.862 291.82L354.571 289.927L359.831 280.803L355.131 278.099L350.636 285.896L347.454 284.065Z" fill="white"/>
<path d="M328.111 302.037L321.491 309.469L318.677 306.967L328.415 296.035L345.417 311.152L342.299 314.652L328.111 302.037Z" fill="white"/>
<path d="M302.915 322.138L306.54 319.166L320.981 336.745L317.356 339.717L302.915 322.138Z" fill="white"/>
<path d="M287.115 340.684L290.934 358.137L286.373 360.672L282.226 336.948L286.501 334.572L304.468 350.613L299.92 353.141L287.115 340.684Z" fill="white"/>
<path d="M247.3 362.697L255.951 360.214L254.267 354.358L244.114 357.272L243.073 353.653L257.731 349.446L264.02 371.309L249.392 375.508L248.342 371.859L258.465 368.954L256.966 363.743L248.315 366.226L247.3 362.697Z" fill="white"/>
<path d="M217.322 367.05L221.049 366.82L220.535 358.508L225.213 358.219L226.618 380.925L218.181 381.446C215.499 381.612 213.393 381.142 211.863 380.036C210.334 378.931 209.501 377.286 209.366 375.103C209.27 373.554 209.528 372.238 210.14 371.157C210.741 370.086 211.704 369.203 213.028 368.505L207.542 359.529L207.528 359.311L212.55 359.001L217.322 367.05ZM221.284 370.61L217.509 370.843C216.335 370.915 215.443 371.268 214.835 371.9C214.228 372.543 213.957 373.389 214.022 374.439C214.088 375.51 214.447 376.334 215.098 376.909C215.739 377.485 216.689 377.734 217.947 377.657L221.705 377.425L221.284 370.61Z" fill="white"/>
<path d="M178.06 370.663L171.7 379.993L166.645 379.149L176.403 366.077L177.763 357.94L182.464 358.725L181.103 366.862L186.079 382.393L181.009 381.547L178.06 370.663Z" fill="white"/>
<path d="M132.747 344.574L136.972 346.605L127.098 367.101L122.873 365.07L132.747 344.574Z" fill="white"/>
<path d="M104.455 327.627L108.237 330.396L106.744 347.856L115.599 335.787L119.381 338.557L105.922 356.899L102.141 354.129L103.64 336.635L94.7659 348.729L90.9966 345.969L104.455 327.627Z" fill="white"/>
<path d="M62.3702 313.546L66.9103 318.833L81.3012 306.499L84.3551 310.055L69.9642 322.389L74.4433 327.605L71.5603 330.076L59.4873 316.017L62.3702 313.546Z" fill="white"/>
<path d="M51.3678 281.165L55.6891 289.06L61.0369 286.138L55.9654 276.873L59.27 275.068L66.5922 288.445L46.6271 299.352L39.3199 286.002L42.652 284.182L47.7085 293.42L52.4667 290.82L48.1454 282.926L51.3678 281.165Z" fill="white"/>
<path d="M40.4339 252.599L41.4525 256.191L49.466 253.924L50.7446 258.434L28.8541 264.628L26.5484 256.495C25.8153 253.91 25.8262 251.752 26.5811 250.023C27.336 248.294 28.7658 247.131 30.8707 246.536C32.3641 246.113 33.7043 246.086 34.8913 246.454C36.0655 246.814 37.1343 247.567 38.0979 248.713L45.701 241.446L45.9115 241.387L47.2839 246.227L40.4339 252.599ZM37.7991 257.225L36.7677 253.587C36.4466 252.455 35.9123 251.659 35.1649 251.199C34.4074 250.742 33.5224 250.657 32.5101 250.943C31.4777 251.236 30.7497 251.761 30.3259 252.52C29.8994 253.268 29.858 254.249 30.2018 255.461L31.2289 259.084L37.7991 257.225Z" fill="white"/>
<path d="M40.5368 204.739L40.7178 209.423L26.1126 219.118L41.0703 218.541L41.2513 223.225L18.5182 224.102L18.3372 219.418L32.973 209.706L17.9841 210.284L17.8037 205.616L40.5368 204.739Z" fill="white"/>
<path d="M38.7089 168.703L36.9828 176.738L41.2381 179.249L40.1913 184.122L19.7252 171.073L20.6375 166.826L44.6704 163.269L43.6236 168.143L38.7089 168.703ZM33.5361 174.705L34.7305 169.144L25.8036 170.155L33.5361 174.705Z" fill="white"/>
<path d="M39.5485 121.618L36.5942 127.929L53.766 135.951L51.7788 140.197L34.607 132.175L31.6925 138.402L28.2524 136.794L36.1085 120.011L39.5485 121.618Z" fill="white"/>
<path d="M67.3436 111.271L64.6823 115.13L45.9426 102.231L48.6039 98.3722L67.3436 111.271Z" fill="white"/>
<path d="M80.5278 78.4493C82.1122 80.0321 83.2213 81.6997 83.855 83.4518C84.4888 85.204 84.6067 86.9267 84.2087 88.62C83.8182 90.3059 82.9486 91.8225 81.6 93.1698C80.2662 94.5023 78.7554 95.371 77.0679 95.7759C75.3803 96.1809 73.6559 96.0778 71.8946 95.4667C70.126 94.8483 68.4642 93.7698 66.9093 92.2311L66.1134 91.436C64.529 89.8532 63.4199 88.1783 62.7861 86.4114C62.1524 84.6298 62.0345 82.8997 62.4324 81.2211C62.8303 79.5278 63.6999 78.0113 65.0411 76.6714C66.3824 75.3315 67.8968 74.4664 69.5843 74.0762C71.2719 73.6713 73.0037 73.7891 74.7797 74.4296C76.5557 75.0554 78.2322 76.156 79.8093 77.7315L80.5278 78.4493ZM76.4378 81.0776C74.7502 79.3916 73.1658 78.4125 71.6846 78.1401C70.2034 77.8677 68.9027 78.291 67.7825 79.4101C66.6698 80.5217 66.246 81.8138 66.5113 83.2862C66.7692 84.7512 67.7309 86.323 69.3964 88.0016L70.1812 88.7857C71.8246 90.4274 73.4016 91.3992 74.9123 91.701C76.4231 92.0029 77.7458 91.5869 78.8807 90.4532C79.9935 89.3415 80.4135 88.0531 80.1409 86.5881C79.8608 85.1157 78.8881 83.5402 77.2226 81.8616L76.4378 81.0776Z" fill="white"/>
<path d="M119.412 62.2268L115.384 64.6241L99.8764 56.4342L107.543 69.2908L103.515 71.688L91.863 52.1483L95.8911 49.751L111.428 57.9597L103.746 45.0763L107.761 42.6871L119.412 62.2268Z" fill="white"/>
<path d="M149.116 43.6904L141.243 46.0475L141.092 50.9855L136.317 52.415L137.894 28.1954L142.055 26.9496L156.75 46.2982L151.975 47.7277L149.116 43.6904ZM141.364 42.0478L146.813 40.4166L141.627 33.0801L141.364 42.0478Z" fill="white"/>
<path d="M179.79 37.5924L189.719 36.9025L189.98 40.659L175.375 41.6739L173.795 18.9788L178.471 18.6539L179.79 37.5924Z" fill="white"/>
<path d="M231.996 34.9333L229.957 42.6851L225.423 41.4945L231.212 19.4934L239.796 21.7476C241.448 22.1815 242.819 22.8647 243.91 23.7972C245.01 24.7323 245.751 25.8476 246.131 27.1431C246.515 28.4285 246.52 29.7814 246.146 31.2018C245.579 33.3576 244.39 34.8656 242.581 35.7258C240.784 36.5786 238.58 36.6624 235.971 35.9771L231.996 34.9333ZM232.962 31.2615L237.013 32.3251C238.212 32.6399 239.198 32.5973 239.971 32.1972C240.754 31.7997 241.283 31.0772 241.559 30.0295C241.843 28.9516 241.754 27.9969 241.295 27.1653C240.835 26.3338 240.048 25.7611 238.935 25.4473L234.779 24.3559L232.962 31.2615Z" fill="white"/>
<path d="M283.203 50.9552C282.127 52.9198 280.837 54.4524 279.332 55.5531C277.827 56.6538 276.206 57.2517 274.467 57.3466C272.738 57.4466 271.037 57.0396 269.364 56.1257C267.71 55.2218 266.451 54.0178 265.588 52.5137C264.725 51.0097 264.34 49.3273 264.432 47.4666C264.529 45.5969 265.098 43.7 266.139 41.7762L266.679 40.7894C267.755 38.8248 269.052 37.2901 270.571 36.1852C272.104 35.0762 273.733 34.4763 275.457 34.3855C277.195 34.2906 278.896 34.6975 280.56 35.6064C282.224 36.5153 283.48 37.7239 284.329 39.2321C285.192 40.7362 285.565 42.4298 285.449 44.3128C285.347 46.1918 284.761 48.1089 283.69 50.0643L283.203 50.9552ZM279.529 47.7734C280.675 45.6809 281.17 43.8863 281.016 42.3894C280.861 40.8926 280.089 39.7646 278.7 39.0055C277.319 38.2514 275.959 38.2088 274.619 38.8775C273.285 39.5371 272.045 40.9014 270.901 42.9706L270.368 43.9438C269.253 45.9814 268.762 47.7669 268.897 49.3003C269.031 50.8337 269.802 51.985 271.21 52.754C272.59 53.5081 273.946 53.5483 275.276 52.8746C276.612 52.1917 277.852 50.8157 278.997 48.7465L279.529 47.7734Z" fill="white"/>
<path d="M301.779 71.5746L309.242 78.161L306.747 80.9818L295.77 71.2936L310.841 54.2517L314.356 57.3536L301.779 71.5746Z" fill="white"/>
<path d="M331.062 100.319L326.224 93.6749L321.512 95.1674L318.578 91.138L341.967 84.6102L344.524 88.1217L331.132 108.38L328.199 104.35L331.062 100.319ZM330.04 92.466L333.388 97.0638L338.594 89.7462L330.04 92.466Z" fill="white"/>
<path d="M349.046 141.762L347.299 137.412L357.794 123.376L343.9 128.944L342.153 124.594L363.271 116.132L365.017 120.482L354.499 134.544L368.423 128.964L370.164 133.3L349.046 141.762Z" fill="white"/>
<path d="M356.125 161.549L378.644 158.321L379.64 165.25C379.924 167.23 379.729 169.062 379.056 170.748C378.394 172.442 377.301 173.846 375.777 174.959C374.264 176.07 372.46 176.776 370.367 177.076L369.331 177.224C367.238 177.524 365.314 177.358 363.561 176.726C361.809 176.103 360.372 175.073 359.249 173.634C358.127 172.196 357.42 170.492 357.126 168.524L356.125 161.549ZM375.552 163.5L360.518 165.655L360.841 167.897C361.101 169.712 361.893 171.014 363.217 171.803C364.54 172.592 366.307 172.838 368.516 172.543L369.707 172.372C371.997 172.044 373.661 171.321 374.7 170.204C375.749 169.085 376.143 167.614 375.881 165.789L375.552 163.5Z" fill="white"/>
</svg>
