<svg width="227" height="227" viewBox="0 0 227 227" fill="none" xmlns="http://www.w3.org/2000/svg">
<path d="M198.278 131.326L220.02 138.021L217.96 144.711C217.371 146.622 216.413 148.196 215.084 149.433C213.762 150.683 212.174 151.485 210.32 151.841C208.477 152.2 206.545 152.068 204.524 151.446L203.523 151.138C201.502 150.515 199.834 149.544 198.519 148.223C197.2 146.913 196.341 145.367 195.941 143.587C195.54 141.807 195.628 139.965 196.204 138.061L198.278 131.326ZM215.012 141.383L200.497 136.914L199.83 139.079C199.291 140.831 199.451 142.347 200.311 143.625C201.17 144.903 202.662 145.881 204.787 146.557L205.937 146.911C208.147 147.591 209.96 147.648 211.377 147.082C212.804 146.518 213.789 145.356 214.331 143.594L215.012 141.383Z" fill="white"/>
<path d="M193.55 167.076L198.042 159.277L192.761 156.235L187.489 165.388L184.226 163.509L191.837 150.294L211.551 161.648L203.956 174.836L200.666 172.941L205.922 163.815L201.223 161.109L196.732 168.908L193.55 167.076Z" fill="white"/>
<path d="M182.084 171.795L175.467 179.23L172.654 176.726L182.388 165.79L199.382 180.914L196.266 184.416L182.084 171.795Z" fill="white"/>
<path d="M166.655 181.409L170.279 178.435L184.711 196.021L181.088 198.995L166.655 181.409Z" fill="white"/>
<path d="M157.923 193.906L161.737 211.364L157.177 213.901L153.037 190.17L157.311 187.792L175.268 203.834L170.721 206.364L157.923 193.906Z" fill="white"/>
<path d="M133.653 207.675L142.303 205.189L140.62 199.333L130.468 202.25L129.429 198.63L144.086 194.419L150.368 216.284L135.741 220.487L134.693 216.838L144.814 213.929L143.317 208.718L134.667 211.204L133.653 207.675Z" fill="white"/>
<path d="M118.647 207.883L122.375 207.653L121.861 199.341L126.539 199.052L127.943 221.758L119.506 222.28C116.823 222.446 114.718 221.976 113.188 220.87C111.659 219.764 110.826 218.12 110.691 215.936C110.596 214.387 110.854 213.072 111.465 211.991C112.067 210.92 113.03 210.036 114.354 209.339L108.868 200.363L108.854 200.145L113.876 199.834L118.647 207.883ZM122.609 211.443L118.835 211.676C117.66 211.749 116.768 212.101 116.161 212.734C115.553 213.376 115.282 214.223 115.347 215.273C115.413 216.344 115.772 217.167 116.423 217.743C117.064 218.319 118.014 218.568 119.272 218.49L123.03 218.258L122.609 211.443Z" fill="white"/>
<path d="M96.5504 210.737L90.1919 220.067L85.1369 219.223L94.8926 206.152L96.2519 198.014L100.952 198.799L99.5931 206.937L104.571 222.469L99.5004 221.622L96.5504 210.737Z" fill="white"/>
<path d="M74.3894 190.35L78.6131 192.383L68.7472 212.882L64.5234 210.85L74.3894 190.35Z" fill="white"/>
<path d="M54.5997 177.2L58.3803 179.971L56.8903 197.438L65.7398 185.366L69.5204 188.137L56.0706 206.485L52.29 203.714L53.7859 186.212L44.9179 198.31L41.1499 195.548L54.5997 177.2Z" fill="white"/>
<path d="M27.0102 174.179L31.5477 179.468L45.9325 167.127L48.9847 170.685L34.5999 183.026L39.0764 188.244L36.1946 190.716L24.1284 176.651L27.0102 174.179Z" fill="white"/>
<path d="M25.9027 153.571L30.2208 161.468L35.5674 158.544L30.4997 149.277L33.8036 147.47L41.1202 160.85L21.1596 171.765L13.858 158.412L17.1893 156.591L22.242 165.831L26.9991 163.23L22.6811 155.333L25.9027 153.571Z" fill="white"/>
<path d="M22.3801 138.805L23.3978 142.398L31.4107 140.128L32.6882 144.638L10.7993 150.838L8.49561 142.705C7.76322 140.119 7.77459 137.961 8.52975 136.232C9.2849 134.502 10.7148 133.339 12.8195 132.743C14.3129 132.32 15.6529 132.293 16.8397 132.66C18.0136 133.021 19.0821 133.774 20.0453 134.919L27.649 127.65L27.8595 127.59L29.2306 132.431L22.3801 138.805ZM19.7447 143.433L18.7142 139.794C18.3934 138.662 17.8594 137.866 17.1121 137.406C16.3548 136.949 15.47 136.864 14.4578 137.151C13.4255 137.444 12.6974 137.969 12.2736 138.728C11.8469 139.477 11.8053 140.457 12.1488 141.67L13.175 145.293L19.7447 143.433Z" fill="white"/>
<path d="M26.9582 107.149L27.1391 111.834L12.5336 121.529L27.4912 120.952L27.672 125.636L4.93897 126.513L4.75811 121.829L19.3943 112.117L4.40543 112.696L4.22517 108.027L26.9582 107.149Z" fill="white"/>
<path d="M25.5364 89.9292L23.812 97.965L28.0674 100.476L27.0216 105.35L6.55481 92.2961L7.46618 88.0491L31.4965 84.4962L30.4507 89.3697L25.5364 89.9292ZM20.3652 95.9309L21.5585 90.37L12.6325 91.379L20.3652 95.9309Z" fill="white"/>
<path d="M22.4106 59.8646L19.4587 66.1773L36.6274 74.2057L34.6418 78.4519L17.4731 70.4234L14.5609 76.6512L11.1215 75.0428L18.9712 58.2563L22.4106 59.8646Z" fill="white"/>
<path d="M43.4562 63.095L40.7967 66.955L22.0628 54.0474L24.7223 50.1874L43.4562 63.095Z" fill="white"/>
<path d="M51.7207 37.9049C53.3044 39.4885 54.4129 41.1569 55.0464 42.9099C55.6798 44.6629 55.7977 46.3865 55.3999 48.0806C55.0095 49.7674 54.1404 51.2847 52.7925 52.6326C51.4593 53.9658 49.9493 54.8349 48.2625 55.2401C46.5758 55.6452 44.8522 55.5421 43.0918 54.9307C41.3241 54.312 39.6631 53.2329 38.1089 51.6935L37.3134 50.898C35.7298 49.3144 34.6213 47.6387 33.9878 45.8709C33.3544 44.0884 33.2365 42.3575 33.6343 40.6781C34.032 38.984 34.9012 37.4666 36.2417 36.1261C37.5823 34.7855 39.0959 33.9201 40.7827 33.5297C42.4694 33.1246 44.2004 33.2424 45.9755 33.8832C47.7506 34.5093 49.4263 35.6105 51.0026 37.1867L51.7207 37.9049ZM47.6328 40.5345C45.946 38.8477 44.3624 37.8681 42.8819 37.5955C41.4014 37.323 40.1014 37.7465 38.9818 38.8661C37.8696 39.9783 37.446 41.271 37.7112 42.7442C37.969 44.2099 38.9302 45.7825 40.5949 47.4619L41.3793 48.2463C43.0219 49.8889 44.5981 50.8612 46.1081 51.1631C47.618 51.4651 48.9402 51.049 50.0745 49.9147C51.1867 48.8024 51.6066 47.5134 51.334 46.0477C51.0541 44.5745 50.0819 42.9983 48.4172 41.3189L47.6328 40.5345Z" fill="white"/>
<path d="M77.5399 34.4642L73.5128 36.8632L58.0126 28.6734L65.6734 41.5332L61.6463 43.9322L50.0032 24.3874L54.0303 21.9884L69.5599 30.1971L61.8831 17.3104L65.8967 14.9194L77.5399 34.4642Z" fill="white"/>
<path d="M91.3639 25.1241L83.491 27.4833L83.3399 32.422L78.5653 33.8528L80.1471 9.6293L84.308 8.3824L98.9958 27.7305L94.2212 29.1613L91.3639 25.1241ZM83.6135 23.4829L89.0616 21.8503L83.8781 14.5139L83.6135 23.4829Z" fill="white"/>
<path d="M105.019 23.7969L114.948 23.1063L115.209 26.8628L100.604 27.8786L99.0253 5.18348L103.702 4.85824L105.019 23.7969Z" fill="white"/>
<path d="M134.13 21.3714L132.092 29.1236L127.558 27.9319L133.342 5.92939L141.925 8.18565C143.578 8.61996 144.949 9.30353 146.039 10.2364C147.14 11.1719 147.88 12.2875 148.261 13.5831C148.645 14.8688 148.65 16.2218 148.277 17.6423C147.71 19.7982 146.522 21.3062 144.713 22.1661C142.916 23.0186 140.713 23.1019 138.104 22.4161L134.13 21.3714ZM135.095 17.6992L139.145 18.7638C140.344 19.0789 141.33 19.0365 142.103 18.6365C142.886 18.2392 143.415 17.5167 143.69 16.4689C143.973 15.391 143.885 14.4361 143.425 13.6044C142.965 12.7726 142.179 12.1997 141.066 11.8856L136.91 10.7932L135.095 17.6992Z" fill="white"/>
<path d="M168.618 32.8758C167.544 34.8408 166.254 36.3737 164.75 37.4744C163.246 38.5752 161.625 39.1729 159.887 39.2675C158.159 39.3671 156.458 38.9596 154.786 38.045C153.132 37.1404 151.873 35.9357 151.01 34.4309C150.147 32.9261 149.761 31.2431 149.853 29.3818C149.95 27.5114 150.518 25.614 151.559 23.6898L152.098 22.7027C153.173 20.7377 154.469 19.2028 155.988 18.0979C157.52 16.9888 159.148 16.389 160.872 16.2986C162.609 16.204 164.31 16.6115 165.973 17.5211C167.637 18.4306 168.893 19.6399 169.742 21.1489C170.605 22.6537 170.978 24.3479 170.862 26.2316C170.76 28.1112 170.175 30.0289 169.105 31.9847L168.618 32.8758ZM164.945 29.692C166.09 27.5991 166.585 25.8039 166.43 24.3065C166.275 22.8091 165.503 21.6806 164.114 20.9209C162.734 20.1663 161.374 20.1233 160.035 20.7919C158.701 21.4514 157.462 22.816 156.319 24.8857L155.786 25.859C154.672 27.8971 154.182 29.6832 154.317 31.2171C154.451 32.7511 155.222 33.9029 156.63 34.6726C158.01 35.4272 159.365 35.4677 160.695 34.7941C162.03 34.1113 163.269 32.7351 164.413 30.6654L164.945 29.692Z" fill="white"/>
<path d="M171.496 44.5526L178.955 51.1425L176.462 53.9646L165.49 44.271L180.553 27.2218L184.066 30.3254L171.496 44.5526Z" fill="white"/>
<path d="M189.63 63.4805L184.796 56.8341L180.086 58.328L177.154 54.2972L200.533 47.7631L203.088 51.2758L189.7 71.5449L186.768 67.5141L189.63 63.4805ZM188.611 55.6241L191.956 60.2235L197.161 52.9018L188.611 55.6241Z" fill="white"/>
<path d="M197.187 90.3008L195.442 85.9502L205.938 71.9087L192.045 77.4811L190.3 73.1305L211.415 64.6614L213.16 69.012L202.641 83.0796L216.563 77.4956L218.302 81.8317L197.187 90.3008Z" fill="white"/>
<path d="M197.749 93.1627L220.268 89.9315L221.262 96.8605C221.546 98.8403 221.352 100.673 220.678 102.359C220.016 104.053 218.923 105.457 217.399 106.57C215.885 107.682 214.082 108.388 211.989 108.688L210.953 108.837C208.859 109.137 206.936 108.971 205.183 108.339C203.431 107.717 201.994 106.686 200.872 105.248C199.75 103.809 199.043 102.106 198.75 100.138L197.749 93.1627ZM217.176 95.1108L202.142 97.2679L202.464 99.5105C202.724 101.325 203.516 102.627 204.839 103.416C206.163 104.205 207.929 104.451 210.139 104.155L211.33 103.984C213.619 103.656 215.283 102.933 216.322 101.816C217.372 100.697 217.766 99.2249 217.504 97.3998L217.176 95.1108Z" fill="white"/>
</svg>
