<svg width="50" height="50" viewBox="0 0 50 50" fill="none" xmlns="http://www.w3.org/2000/svg">
<path d="M30.1211 29.0376C29.9039 28.8915 29.6297 28.8657 29.3875 28.9665L20.0125 32.8727C19.7211 32.9938 19.5312 33.279 19.5312 33.5938V42.1876C19.5312 42.4586 19.6719 42.7094 19.9016 42.8524C20.0273 42.9297 20.1695 42.9688 20.3125 42.9688C20.432 42.9688 20.5516 42.9415 20.6617 42.8868L30.0367 38.1993C30.3016 38.0665 30.4688 37.7962 30.4688 37.5001V29.6876C30.4688 29.4266 30.3383 29.1829 30.1211 29.0376ZM28.9062 37.0172L21.0938 40.9235V34.1149L28.9062 30.8594V37.0172Z" fill="white"/>
<path d="M48.7578 7.8813L33.1328 0.850049C32.9289 0.758643 32.6953 0.758643 32.4922 0.850049L16.8672 7.8813C16.5867 8.00786 16.4062 8.28598 16.4062 8.5938V16.6821L1.24219 23.5063C0.961719 23.6329 0.78125 23.911 0.78125 24.2188V39.8438C0.78125 40.1282 0.936719 40.3907 1.18594 40.5282L16.8109 49.1219C16.9281 49.1868 17.0578 49.2188 17.1875 49.2188C17.3172 49.2188 17.4469 49.1868 17.5641 49.1219L33.1891 40.5282C33.4383 40.3907 33.5938 40.1282 33.5938 39.8438V33.2743L48.8141 24.9032C49.0633 24.7657 49.2188 24.5032 49.2188 24.2188V8.5938C49.2188 8.28598 49.0383 8.00786 48.7578 7.8813ZM17.1875 30.393L12.0242 28.0696L25.4312 21.7539L30.9086 24.2188L17.1875 30.393ZM23.5562 20.9102L9.82266 27.3797C9.55 27.5086 9.375 27.7829 9.375 28.086V32.3297L7.8125 31.5485V27.1704L22.1383 20.2719L23.5562 20.9102ZM17.9688 16.6821V9.80239L21.875 11.5602V16.4063C21.875 16.7024 22.0422 16.9727 22.307 17.1055L25.432 18.668C25.5422 18.7227 25.6617 18.75 25.7812 18.75C25.9242 18.75 26.0664 18.711 26.1922 18.6336C26.4219 18.4907 26.5625 18.2399 26.5625 17.9688V13.6696L32.0312 16.1305V23.011L17.9688 16.6821ZM25.4484 11.7547C25.175 11.8836 25 12.1579 25 12.461V16.7047L23.4375 15.9235V11.5454L37.7633 4.64692L39.1813 5.2852L25.4484 11.7547ZM32.8125 14.768L27.6492 12.4446L41.0562 6.12895L46.5336 8.5938L32.8125 14.768ZM32.8125 2.41958L35.9008 3.80942L22.6453 10.193L19.0914 8.5938L32.8125 2.41958ZM17.1875 18.0446L20.2758 19.4344L7.01953 25.818L3.46641 24.2188L17.1875 18.0446ZM2.34375 25.4274L6.25 27.1852V32.0313C6.25 32.3274 6.41719 32.5977 6.68203 32.7305L9.80703 34.293C9.91719 34.3477 10.0367 34.375 10.1562 34.375C10.2992 34.375 10.4414 34.336 10.5672 34.2586C10.7969 34.1157 10.9375 33.8649 10.9375 33.5938V29.2946L16.4062 31.7555V47.1164L2.34375 39.3821V25.4274ZM17.9688 47.1157V31.7555L32.0312 25.4274V39.3821L17.9688 47.1157ZM33.5938 31.4914V24.2188V16.1305L47.6562 9.80239V23.7571L33.5938 31.4914Z" fill="white"/>
<path d="M45.7461 13.4126C45.5297 13.2673 45.2539 13.2407 45.0125 13.3415L35.6375 17.2477C35.3461 17.3688 35.1562 17.654 35.1562 17.9688V26.5626C35.1562 26.8337 35.2969 27.0845 35.5266 27.2274C35.6523 27.3048 35.7945 27.3438 35.9375 27.3438C36.057 27.3438 36.1766 27.3165 36.2867 27.2618L45.6617 22.5743C45.9266 22.4415 46.0938 22.1712 46.0938 21.8751V14.0626C46.0938 13.8016 45.9633 13.5579 45.7461 13.4126ZM44.5312 21.3923L36.7188 25.2985V18.4899L44.5312 15.2345V21.3923Z" fill="white"/>
</svg>
