<svg width="50" height="50" viewBox="0 0 50 50" fill="none" xmlns="http://www.w3.org/2000/svg">
<path d="M48.4375 0.78125H1.5625C1.13125 0.78125 0.78125 1.13125 0.78125 1.5625V48.4375C0.78125 48.8695 1.13125 49.2188 1.5625 49.2188H48.4375C48.8688 49.2188 49.2188 48.8695 49.2188 48.4375V1.5625C49.2188 1.13125 48.8688 0.78125 48.4375 0.78125ZM21.875 41.4062C21.668 41.4062 21.4688 41.4883 21.3227 41.6352L16.4062 46.5516V4.14297L21.225 11.3711C21.3703 11.5883 21.6141 11.7188 21.875 11.7188H29.2648L28.9086 16.3461H28.9125C28.9117 16.3672 28.9062 16.3859 28.9062 16.4062C28.9062 17.8578 29.9062 19.0711 31.25 19.4203V41.4062H21.875ZM10.1562 4.14297L14.8438 11.1742V41.8641L10.1562 46.5516V4.14297ZM32.0312 17.9688C31.1742 17.9688 30.4773 17.275 30.4703 16.4195L30.4789 16.3109C30.5289 15.4938 31.2023 14.8438 32.0312 14.8438C32.8602 14.8438 33.5336 15.4938 33.5844 16.3102L33.593 16.4188C33.5852 17.275 32.8883 17.9688 32.0312 17.9688ZM33.375 13.5969C32.9664 13.4008 32.5141 13.2812 32.0312 13.2812C31.5484 13.2812 31.0961 13.4008 30.6875 13.5969L30.8313 11.7188H33.2305L33.375 13.5969ZM30.9516 10.1562L31.0875 8.39141C31.3766 8.51953 31.6953 8.59375 32.0312 8.59375C32.3672 8.59375 32.6859 8.51953 32.975 8.39141L33.1109 10.1562H30.9516ZM31.25 6.25C31.25 5.81953 31.6008 5.46875 32.0312 5.46875C32.4617 5.46875 32.8125 5.81953 32.8125 6.25C32.8125 6.68047 32.4617 7.03125 32.0312 7.03125C31.6008 7.03125 31.25 6.68047 31.25 6.25ZM34.3727 6.18984H34.3688C34.3367 4.92578 33.3031 3.90625 32.0312 3.90625C30.7594 3.90625 29.7258 4.92578 29.6938 6.19062H29.6898L29.3844 10.1562H22.293L17.0844 2.34375H46.9773L41.7687 10.1562H34.6773L34.3727 6.18984ZM14.8438 8.35703L10.8344 2.34375H14.8438V8.35703ZM8.59375 10.1562H8.23047L3.02187 2.34375H8.59375V10.1562ZM7.1625 11.3711C7.30781 11.5883 7.55156 11.7188 7.8125 11.7188H8.59375V41.4062H7.8125C7.60547 41.4062 7.40625 41.4883 7.26016 41.6352L2.34375 46.5516V4.14297L7.1625 11.3711ZM8.13594 42.9688H8.59375V47.6562H3.44844L8.13594 42.9688ZM14.8438 44.0734V47.6562H11.2609L14.8438 44.0734ZM22.1984 42.9688H41.8641L46.5516 47.6562H17.5109L22.1984 42.9688ZM42.7398 41.6352C42.5938 41.4883 42.3945 41.4062 42.1875 41.4062H32.8125V19.4203C34.1562 19.0711 35.1562 17.8578 35.1562 16.4062C35.1562 16.3859 35.1508 16.3672 35.15 16.3469H35.1539L34.7977 11.7188H42.1875C42.4484 11.7188 42.6922 11.5883 42.8375 11.3711L47.6562 4.14297V46.5516L42.7398 41.6352Z" fill="#333"/>
</svg>
