<svg width="50" height="50" viewBox="0 0 50 50" fill="none" xmlns="http://www.w3.org/2000/svg">
<g clip-path="url(#clip0)">
<path d="M49.0004 27.0001H43.4111C44.8056 21.1241 43.7016 14.9327 40.3618 9.90093C44.8515 3.3858 44.2641 1.46685 43.3989 0.601619C42.5317 -0.264104 40.6088 -0.846135 34.1005 3.6397C25.3862 -2.11518 13.8256 -0.944767 6.44087 6.44C-0.943407 13.8243 -2.11382 25.3848 3.64107 34.0997C-0.846727 40.6119 -0.262743 42.5323 0.603468 43.398C1.02144 43.816 1.59663 44.0367 2.18648 44.0059C3.52534 44.0059 5.81733 43.1719 9.89985 40.3594C14.9321 43.7002 21.1245 44.8052 27.0014 43.4102V48.9996C27.0014 49.5518 27.4492 49.9996 28.0014 49.9996H49.0004C49.5527 49.9996 50.0004 49.5518 50.0004 48.9996V28.0001C50.0004 27.4478 49.5527 27.0001 49.0004 27.0001ZM27.0014 34.0001H23.0014V29.4551C23.5073 28.9756 24.0131 28.4937 24.5209 28.0001H27.0014V34.0001ZM21.0014 41.9493C19.5454 41.879 18.102 41.6485 16.6962 41.2627C15.7578 39.9556 14.9487 38.5601 14.2807 37.0958C14.7246 36.7422 15.1762 36.3736 15.6303 36.0001H21.0014V41.9493ZM6.03999 10.0005H10.8774C10.2417 11.9581 9.76851 13.9649 9.46284 16.0001H2.92427C3.61372 13.8375 4.66743 11.8082 6.03999 10.0005ZM21.0014 2.05133V8.00054H13.79C14.5527 6.14019 15.5283 4.37408 16.6962 2.73736C18.102 2.35162 19.5454 2.12164 21.0014 2.05133ZM27.3066 2.73736C28.4746 4.37408 29.4497 6.14019 30.2128 8.00054H23.0014V2.05133C24.4575 2.12164 25.9008 2.35162 27.3066 2.73736ZM13.02 34.0001C12.3349 32.0489 11.8232 30.0411 11.4912 28.0001H21.0014V28.5967C18.8217 30.6451 16.7954 32.4463 14.9228 34.0001H13.02ZM11.0019 22.0001C11.0034 20.6641 11.0766 19.3287 11.2216 18.0001H21.0014V26.0001H11.2216C11.0766 24.6714 11.0034 23.3365 11.0019 22.0001ZM23.0014 26.0001V18.0001H31.3505C29.4575 20.127 27.3027 22.4195 24.8618 24.8604C24.4672 25.2549 24.0883 25.6202 23.7011 26.0001H23.0014ZM42.0009 22.0001C41.998 23.3443 41.8588 24.6841 41.5859 26.0001H34.7939C34.9296 24.671 34.999 23.336 35.0009 22.0001C34.998 20.6641 34.9287 19.3292 34.7919 18.0001H41.5976C41.8662 19.3165 42.0009 20.6568 42.0009 22.0001ZM32.5117 16.0001H23.0014V10.0005H30.9829C31.6679 11.9517 32.1791 13.9595 32.5117 16.0001ZM33.1254 10.0005H37.852C36.854 11.378 35.6748 12.9024 34.2939 14.5713C34.0014 13.0245 33.6113 11.4976 33.1254 10.0005ZM32.8906 19.2593C32.9555 20.1461 33.0009 21.0523 33.0009 22.0001C32.9995 23.3365 32.9272 24.6714 32.7851 26.0001H26.5454C28.8022 23.7335 30.9321 21.4664 32.8906 19.2593ZM35.6992 16.0005C36.9482 14.4962 38.0795 13.0533 39.0942 11.671C39.9267 13.0294 40.5927 14.483 41.0786 16.0005H35.6992ZM32.3974 8.00054C31.8413 6.58648 31.186 5.21392 30.4365 3.89215C32.6069 4.90338 34.579 6.29449 36.2592 8.00054H32.3974ZM21.0014 10.0005V16.0005H11.4912C11.8232 13.9595 12.3349 11.9517 13.02 10.0005H21.0014ZM9.21089 18.0001C8.93208 20.6597 8.93208 23.3409 9.21089 26.0001H2.40523C1.86763 23.3604 1.86763 20.6397 2.40523 18.0001H9.21089ZM9.46284 28.0001C9.76851 30.0357 10.2417 32.042 10.8774 34.0001H6.03999C4.66743 32.1919 3.61372 30.1627 2.92427 28.0001H9.46284ZM11.6054 36.0001C11.6733 36.171 11.7417 36.337 11.81 36.502C11.1538 37.0069 10.5273 37.4756 9.92964 37.9078C9.1562 37.3252 8.42525 36.6876 7.74312 36.0001H11.6054ZM12.6445 38.3672C12.9653 39.022 13.2753 39.5997 13.5664 40.108C12.9174 39.8043 12.2851 39.4654 11.6723 39.0933C11.9936 38.8565 12.3159 38.6172 12.6445 38.3672ZM18.0034 34.0001C18.9882 33.147 19.9916 32.2442 21.0014 31.3194V34.0001H18.0034ZM37.0009 29.0001H41.0009V34.1314L39.5556 33.168C39.2197 32.9439 38.7822 32.9439 38.4462 33.168L37.0009 34.1314V29.0001ZM41.8129 1.98834C41.8657 1.98638 41.9189 1.99029 41.9711 1.99908C42.2993 2.6148 41.3935 4.80279 39.1142 8.19683C38.1323 6.98199 37.0253 5.87457 35.811 4.89215C39.7763 2.23394 41.3525 1.98834 41.8129 1.98834ZM13.5664 3.89215C12.8168 5.21392 12.1616 6.58648 11.6054 8.00054H7.74312C9.42378 6.29449 11.3959 4.90338 13.5664 3.89215ZM2.03169 42.0015C2.02534 41.9903 1.56636 40.7735 4.89351 35.8096C5.8769 37.0259 6.98677 38.1343 8.20356 39.1172C4.81099 41.4024 2.63032 42.3169 2.03169 42.0015ZM23.0014 41.9678V36.0001H27.0014V41.3589C25.6918 41.6963 24.352 41.9004 23.0014 41.9678ZM48.0004 47.9996H29.0009V29.0001H35.0009V36.0001C35.0009 36.3687 35.204 36.7076 35.5292 36.8814C35.854 37.0557 36.249 37.0367 36.5556 36.8321L39.0009 35.2017L41.4462 36.8321C41.7529 37.0367 42.1474 37.0557 42.4726 36.8814C42.7978 36.7076 43.0009 36.3687 43.0004 36.0001V29.0001H48.0004V47.9996Z" fill="white"/>
<path d="M43 42C42.4478 42 42 42.4478 42 43V46C42 46.5522 42.4478 47 43 47H46C46.5522 47 47 46.5522 47 46V43C47 42.4478 46.5522 42 46 42H43ZM45 45H44V44H45V45Z" fill="white"/>
<path d="M31.0005 42C30.4482 42 30.0005 42.4478 30.0005 43V46C30.0049 46.5493 30.4512 46.9922 31.0005 46.9922C31.5498 46.9922 31.9961 46.5493 32.0005 46V43C32.0005 42.4478 31.5527 42 31.0005 42Z" fill="white"/>
<path d="M34.0005 42C33.4482 42 33.0005 42.4478 33.0005 43V46C33.0049 46.5493 33.4512 46.9922 34.0005 46.9922C34.5498 46.9922 34.9961 46.5493 35.0005 46V43C35.0005 42.4478 34.5527 42 34.0005 42Z" fill="white"/>
</g>
<defs>
<clipPath id="clip0">
<rect width="50" height="50" fill="white"/>
</clipPath>
</defs>
</svg>
