<svg width="17" height="17" viewBox="0 0 17 17" fill="none" xmlns="http://www.w3.org/2000/svg">
<g clip-path="url(#clip0)">
<path d="M15.786 10.9286C15.4507 10.9286 15.1788 11.2005 15.1788 11.5358V15.1787C15.1788 15.514 14.907 15.7858 14.5717 15.7858H2.42888C2.09356 15.7858 1.82173 15.514 1.82173 15.1787V11.5358C1.82173 11.2005 1.5499 10.9286 1.21458 10.9286C0.879249 10.9286 0.607422 11.2005 0.607422 11.5358V15.1787C0.607422 16.1846 1.4229 17.0001 2.42885 17.0001H14.5717C15.5777 17.0001 16.3931 16.1846 16.3931 15.1787V11.5358C16.3931 11.2005 16.1213 10.9286 15.786 10.9286Z" fill="#333333"/>
<path d="M11.9519 10.4993C11.7166 10.2721 11.3436 10.2721 11.1083 10.4993L9.1078 12.4986V0.607154C9.1078 0.271827 8.83597 0 8.50065 0C8.16532 0 7.89349 0.271827 7.89349 0.607154V12.4987L5.89416 10.4993C5.65296 10.2664 5.26862 10.2731 5.03567 10.5142C4.80842 10.7495 4.80842 11.1225 5.03567 11.3578L8.07137 14.3935C8.30819 14.6309 8.69261 14.6314 8.93 14.3946C8.93035 14.3943 8.93071 14.3939 8.9311 14.3935L11.9668 11.3578C12.1998 11.1166 12.1931 10.7323 11.9519 10.4993Z" fill="#333333"/>
</g>
<defs>
<clipPath id="clip0">
<rect width="17" height="17" fill="white"/>
</clipPath>
</defs>
</svg>
