<svg width="17" height="17" viewBox="0 0 17 17" fill="none" xmlns="http://www.w3.org/2000/svg">
<g clip-path="url(#clip0)">
<path d="M9.43869 8.49924L16.805 15.8656C17.0644 16.125 17.0644 16.5454 16.805 16.8048C16.5457 17.0641 16.1252 17.0641 15.8659 16.8048L8.4995 9.43839L1.13317 16.8048C0.873823 17.0641 0.453339 17.0641 0.194024 16.8048C-0.0652924 16.5454 -0.0653256 16.1249 0.194024 15.8656L7.56035 8.49928L0.194024 1.13291C-0.0653256 0.873562 -0.0653256 0.453077 0.194024 0.193762C0.323682 0.0641041 0.493648 -0.000707626 0.663614 -0.000707626C0.833581 -0.000707626 1.00351 0.0641041 1.13321 0.193762L8.4995 7.56009L15.8658 0.193762C15.9955 0.0641041 16.1655 -0.000707626 16.3354 -0.000707626C16.5054 -0.000707626 16.6753 0.0641041 16.805 0.193762C17.0644 0.453112 17.0644 0.873594 16.805 1.13291L9.43869 8.49924Z" fill="white"/>
</g>
<defs>
<clipPath id="clip0">
<rect width="17" height="17" fill="white" transform="matrix(1 0 0 -1 0 17)"/>
</clipPath>
</defs>
</svg>
