<svg width="17" height="17" viewBox="0 0 17 17" fill="none" xmlns="http://www.w3.org/2000/svg">
<g clip-path="url(#clip0)">
<path d="M14.9247 2.03134H2.07883C0.932133 2.03134 0 2.96347 0 4.11017V12.8898C0 14.0365 0.932133 14.9686 2.07883 14.9686H14.9212C16.0679 14.9686 17 14.0365 17 12.8898V4.11369C17.0035 2.96699 16.0714 2.03134 14.9247 2.03134ZM16.0538 12.8898C16.0538 13.5124 15.5473 14.0189 14.9247 14.0189H2.07883C1.45624 14.0189 0.949721 13.5124 0.949721 12.8898V4.11369C0.949721 3.4911 1.45624 2.98458 2.07883 2.98458H14.9212C15.5438 2.98458 16.0503 3.4911 16.0503 4.11369V12.8898H16.0538Z" fill="#333333"/>
<path d="M10.7211 8.39096L14.8788 4.66243C15.0723 4.48655 15.0899 4.18757 14.914 3.99059C14.7381 3.79713 14.4391 3.77954 14.2421 3.95541L8.50865 9.10149L7.39009 8.10253C7.38657 8.09901 7.38306 8.09549 7.38306 8.09198C7.35843 8.06735 7.33381 8.04625 7.30567 8.02514L2.75405 3.9519C2.55707 3.77602 2.25808 3.79361 2.08221 3.99059C1.90633 4.18757 1.92392 4.48655 2.1209 4.66243L6.32781 8.42262L2.13849 12.3446C1.94854 12.524 1.93799 12.823 2.11738 13.0165C2.21235 13.1149 2.33898 13.1677 2.46561 13.1677C2.58169 13.1677 2.69777 13.1255 2.78922 13.0411L7.04186 9.0628L8.19559 10.0934C8.28705 10.1743 8.39961 10.213 8.51217 10.213C8.62473 10.213 8.7408 10.1708 8.82874 10.0899L10.0141 9.02763L14.2421 13.0446C14.3336 13.1325 14.4532 13.1747 14.5693 13.1747C14.6959 13.1747 14.819 13.1255 14.914 13.027C15.0934 12.8371 15.0863 12.5346 14.8964 12.3552L10.7211 8.39096Z" fill="#333333"/>
</g>
<defs>
<clipPath id="clip0">
<rect width="17" height="17" fill="white"/>
</clipPath>
</defs>
</svg>
