<svg width="17" height="17" viewBox="0 0 17 17" fill="none" xmlns="http://www.w3.org/2000/svg">
<g clip-path="url(#clip0)">
<path d="M13.4354 10.5309C13.0873 10.1685 12.6676 9.97476 12.2227 9.97476C11.7813 9.97476 11.358 10.1649 10.9956 10.5273L9.86177 11.6575C9.76848 11.6073 9.67519 11.5606 9.5855 11.514C9.45633 11.4494 9.33434 11.3884 9.23029 11.3238C8.16825 10.6493 7.20309 9.77024 6.27739 8.63286C5.8289 8.06596 5.52751 7.58876 5.30864 7.10438C5.60285 6.83529 5.87554 6.55543 6.14105 6.28633C6.24151 6.18586 6.34197 6.08181 6.44244 5.98135C7.19591 5.22788 7.19591 4.25195 6.44244 3.49848L5.46292 2.51896C5.3517 2.40774 5.23688 2.29292 5.12924 2.17811C4.91396 1.95565 4.68792 1.72602 4.4547 1.51075C4.10667 1.1663 3.69047 0.983315 3.25274 0.983315C2.815 0.983315 2.39162 1.1663 2.03283 1.51075C2.02924 1.51433 2.02924 1.51433 2.02565 1.51792L0.805743 2.74859C0.346483 3.20785 0.0845615 3.76758 0.0271541 4.417C-0.0589571 5.46468 0.249608 6.44061 0.486414 7.07927C1.06766 8.64721 1.93595 10.1003 3.23121 11.6575C4.80274 13.534 6.69359 15.0158 8.85355 16.0599C9.67878 16.451 10.7803 16.9139 12.011 16.9928C12.0863 16.9964 12.1652 17 12.237 17C13.0658 17 13.7619 16.7022 14.3073 16.1102C14.3108 16.103 14.318 16.0994 14.3216 16.0922C14.5082 15.8662 14.7235 15.6617 14.9495 15.4428C15.1038 15.2957 15.2617 15.1414 15.4159 14.98C15.7711 14.6104 15.9577 14.1799 15.9577 13.7385C15.9577 13.2936 15.7676 12.8667 15.4052 12.5079L13.4354 10.5309ZM14.7199 14.309C14.7163 14.309 14.7163 14.3126 14.7199 14.309C14.5799 14.4597 14.4364 14.5961 14.2821 14.7468C14.0489 14.9692 13.8121 15.2024 13.5897 15.4643C13.2273 15.8518 12.8003 16.0348 12.2406 16.0348C12.1868 16.0348 12.1294 16.0348 12.0755 16.0312C11.0099 15.9631 10.0196 15.5469 9.27693 15.1917C7.24614 14.2086 5.46292 12.8128 3.98109 11.044C2.7576 9.56932 1.93954 8.20589 1.39776 6.742C1.06408 5.8486 0.942085 5.15253 0.995905 4.49593C1.03178 4.07614 1.19324 3.72811 1.49104 3.43031L2.71454 2.20681C2.89035 2.04176 3.07693 1.95207 3.25991 1.95207C3.48595 1.95207 3.66894 2.08841 3.78375 2.20322C3.78734 2.20681 3.79093 2.2104 3.79452 2.21399C4.01338 2.4185 4.22149 2.63019 4.44035 2.85623C4.55158 2.97105 4.66639 3.08586 4.78121 3.20427L5.76072 4.18378C6.14105 4.5641 6.14105 4.91573 5.76072 5.29605C5.65667 5.4001 5.55621 5.50415 5.45216 5.60461C5.15077 5.91318 4.86373 6.20022 4.55158 6.48008C4.5444 6.48725 4.53723 6.49084 4.53364 6.49802C4.22507 6.80658 4.28248 7.10797 4.34706 7.31249C4.35065 7.32325 4.35424 7.33401 4.35783 7.34478C4.61257 7.96191 4.97137 8.54316 5.51674 9.23564L5.52033 9.23922C6.51061 10.4591 7.55471 11.4099 8.70644 12.1383C8.85355 12.2316 9.00424 12.3069 9.14776 12.3787C9.27693 12.4433 9.39892 12.5043 9.50297 12.5689C9.51732 12.576 9.53168 12.5868 9.54603 12.594C9.66802 12.655 9.78283 12.6837 9.90124 12.6837C10.199 12.6837 10.3856 12.4971 10.4466 12.4361L11.6737 11.209C11.7957 11.087 11.9894 10.9399 12.2155 10.9399C12.4379 10.9399 12.6209 11.0799 12.7321 11.2018C12.7357 11.2054 12.7357 11.2054 12.7393 11.209L14.7163 13.186C15.0858 13.552 15.0858 13.9287 14.7199 14.309Z" fill="white"/>
<path d="M9.18715 4.04382C10.1272 4.20169 10.9811 4.64659 11.6628 5.32831C12.3446 6.01002 12.7859 6.86396 12.9473 7.804C12.9868 8.04081 13.1913 8.20586 13.4245 8.20586C13.4532 8.20586 13.4784 8.20227 13.5071 8.19868C13.7726 8.15562 13.9484 7.90447 13.9053 7.63896C13.7116 6.50157 13.1734 5.46465 12.3517 4.64301C11.5301 3.82136 10.4932 3.28317 9.35579 3.08942C9.09028 3.04636 8.84271 3.22217 8.79607 3.48409C8.74942 3.74601 8.92165 4.00076 9.18715 4.04382Z" fill="white"/>
<path d="M16.9803 7.49901C16.6609 5.62609 15.7783 3.92181 14.422 2.56556C13.0658 1.20931 11.3615 0.326668 9.48858 0.00733879C9.22666 -0.0393048 8.97909 0.140094 8.93245 0.402015C8.88939 0.667525 9.0652 0.915094 9.33071 0.961738C11.0027 1.24519 12.5276 2.03813 13.7403 3.24727C14.9531 4.46 15.7424 5.98489 16.0259 7.65688C16.0653 7.89369 16.2698 8.05873 16.5031 8.05873C16.5318 8.05873 16.5569 8.05515 16.5856 8.05156C16.8475 8.01209 17.0269 7.76093 16.9803 7.49901Z" fill="white"/>
</g>
<defs>
<clipPath id="clip0">
<rect width="17" height="17" fill="white"/>
</clipPath>
</defs>
</svg>
