<svg width="17" height="17" viewBox="0 0 17 17" fill="none" xmlns="http://www.w3.org/2000/svg">
<path d="M13.423 10.5309C13.075 10.1686 12.6552 9.97481 12.2103 9.97481C11.7689 9.97481 11.3456 10.165 10.9832 10.5274L9.84938 11.6576C9.75609 11.6073 9.6628 11.5607 9.57311 11.514C9.44394 11.4495 9.32195 11.3885 9.2179 11.3239C8.15586 10.6493 7.1907 9.7703 6.265 8.63291C5.8165 8.06601 5.51512 7.58881 5.29625 7.10444C5.59046 6.83534 5.86315 6.55548 6.12866 6.28638C6.22912 6.18592 6.32958 6.08187 6.43005 5.9814C7.18352 5.22793 7.18352 4.252 6.43005 3.49853L5.45053 2.51902C5.33931 2.40779 5.22449 2.29298 5.11685 2.17816C4.90157 1.95571 4.67553 1.72608 4.44231 1.5108C4.09428 1.16635 3.67808 0.983368 3.24035 0.983368C2.80261 0.983368 2.37923 1.16635 2.02044 1.5108C2.01685 1.51439 2.01685 1.51439 2.01326 1.51797L0.793353 2.74865C0.334093 3.20791 0.0721714 3.76763 0.014764 4.41705C-0.0713472 5.46474 0.237218 6.44066 0.474024 7.07932C1.05527 8.64726 1.92356 10.1004 3.21882 11.6576C4.79035 13.5341 6.6812 15.0159 8.84116 16.06C9.66639 16.4511 10.7679 16.9139 11.9986 16.9929C12.0739 16.9965 12.1529 17 12.2246 17C13.0534 17 13.7495 16.7022 14.2949 16.1102C14.2985 16.1031 14.3056 16.0995 14.3092 16.0923C14.4958 15.8663 14.7111 15.6617 14.9371 15.4429C15.0914 15.2958 15.2493 15.1415 15.4036 14.98C15.7588 14.6105 15.9453 14.1799 15.9453 13.7386C15.9453 13.2937 15.7552 12.8667 15.3928 12.5079L13.423 10.5309ZM14.7075 14.3091C14.7039 14.3091 14.7039 14.3127 14.7075 14.3091C14.5676 14.4598 14.424 14.5961 14.2698 14.7468C14.0365 14.9693 13.7997 15.2025 13.5773 15.4644C13.2149 15.8519 12.7879 16.0349 12.2282 16.0349C12.1744 16.0349 12.117 16.0349 12.0632 16.0313C10.9975 15.9631 10.0072 15.5469 9.26454 15.1917C7.23375 14.2086 5.45053 12.8129 3.9687 11.044C2.74521 9.56937 1.92715 8.20594 1.38537 6.74205C1.05169 5.84865 0.929695 5.15258 0.983515 4.49599C1.01939 4.07619 1.18085 3.72816 1.47865 3.43036L2.70215 2.20686C2.87796 2.04182 3.06454 1.95212 3.24752 1.95212C3.47356 1.95212 3.65655 2.08846 3.77136 2.20328C3.77495 2.20686 3.77854 2.21045 3.78213 2.21404C4.00099 2.41855 4.2091 2.63024 4.42796 2.85629C4.53919 2.9711 4.654 3.08592 4.76882 3.20432L5.74833 4.18383C6.12866 4.56416 6.12866 4.91578 5.74833 5.2961C5.64428 5.40015 5.54382 5.5042 5.43977 5.60467C5.13838 5.91323 4.85134 6.20027 4.53919 6.48013C4.53201 6.48731 4.52484 6.4909 4.52125 6.49807C4.21268 6.80664 4.27009 7.10803 4.33467 7.31254C4.33826 7.3233 4.34185 7.33407 4.34544 7.34483C4.60018 7.96196 4.95898 8.54321 5.50435 9.23569L5.50794 9.23928C6.49822 10.4592 7.54232 11.41 8.69405 12.1384C8.84116 12.2316 8.99185 12.307 9.13537 12.3787C9.26454 12.4433 9.38653 12.5043 9.49058 12.5689C9.50493 12.5761 9.51929 12.5869 9.53364 12.594C9.65563 12.655 9.77044 12.6837 9.88885 12.6837C10.1866 12.6837 10.3732 12.4972 10.4342 12.4362L11.6613 11.2091C11.7833 11.0871 11.977 10.94 12.2031 10.94C12.4255 10.94 12.6085 11.0799 12.7198 11.2019C12.7233 11.2055 12.7233 11.2055 12.7269 11.2091L14.7039 13.186C15.0735 13.552 15.0735 13.9287 14.7075 14.3091Z" fill="#333333"/>
<path d="M9.17409 4.04386C10.1141 4.20173 10.9681 4.64664 11.6498 5.32835C12.3315 6.01007 12.7728 6.864 12.9343 7.80405C12.9737 8.04086 13.1783 8.2059 13.4115 8.2059C13.4402 8.2059 13.4653 8.20231 13.494 8.19873C13.7595 8.15567 13.9353 7.90451 13.8923 7.639C13.6985 6.50162 13.1603 5.4647 12.3387 4.64305C11.517 3.82141 10.4801 3.28321 9.34273 3.08946C9.07722 3.04641 8.82965 3.22222 8.78301 3.48414C8.73636 3.74606 8.90858 4.00081 9.17409 4.04386Z" fill="#333333"/>
<path d="M16.9684 7.49906C16.649 5.62614 15.7664 3.92186 14.4101 2.5656C13.0539 1.20935 11.3496 0.326714 9.47668 0.00738456C9.21476 -0.039259 8.96719 0.140139 8.92054 0.402061C8.87749 0.66757 9.0533 0.91514 9.31881 0.961784C10.9908 1.24523 12.5157 2.03817 13.7284 3.24732C14.9412 4.46005 15.7305 5.98494 16.014 7.65693C16.0534 7.89373 16.2579 8.05878 16.4912 8.05878C16.5199 8.05878 16.545 8.05519 16.5737 8.0516C16.8356 8.01214 17.015 7.76098 16.9684 7.49906Z" fill="#333333"/>
</svg>
