<svg width="17" height="17" viewBox="0 0 17 17" fill="none" xmlns="http://www.w3.org/2000/svg">
<path d="M8.4959 0C4.7395 0 1.68164 3.05786 1.68164 6.81426C1.68164 7.24193 1.72084 7.67317 1.80281 8.09371C1.80638 8.11866 1.82063 8.1935 1.84915 8.3218C1.9525 8.78155 2.10575 9.23417 2.30533 9.66541C3.0395 11.3939 4.65397 14.0491 8.19652 16.8931C8.28562 16.9644 8.39254 17 8.49946 17C8.60638 17 8.7133 16.9644 8.80239 16.8931C12.3414 14.0491 13.9594 11.3939 14.6936 9.66541C14.8932 9.23417 15.0464 8.78512 15.1498 8.3218C15.1783 8.1935 15.1925 8.11866 15.1961 8.09371C15.2745 7.67317 15.3173 7.24193 15.3173 6.81426C15.3102 3.05786 12.2523 0 8.4959 0ZM14.241 7.92621C14.241 7.93333 14.2374 7.94046 14.2374 7.94759C14.2338 7.96541 14.2231 8.01887 14.2053 8.10084C14.2053 8.1044 14.2053 8.1044 14.2053 8.10797C14.1162 8.50713 13.9844 8.8956 13.8097 9.26981C13.8062 9.27338 13.8062 9.2805 13.8026 9.28407C13.1361 10.8629 11.6749 13.2721 8.4959 15.8987C5.31686 13.2721 3.85564 10.8629 3.18919 9.28407C3.18562 9.2805 3.18562 9.27338 3.18206 9.26981C3.01099 8.89916 2.87912 8.50713 2.78646 8.10797C2.78646 8.1044 2.78646 8.1044 2.78646 8.10084C2.76508 8.01887 2.75795 7.96541 2.75439 7.94759C2.75439 7.94046 2.75082 7.93333 2.75082 7.92264C2.67954 7.55556 2.6439 7.18491 2.6439 6.81069C2.6439 3.58533 5.27053 0.9587 8.4959 0.9587C11.7213 0.9587 14.3479 3.58533 14.3479 6.81069C14.3479 7.18847 14.3122 7.56268 14.241 7.92621Z" fill="#333333"/>
<path d="M8.49655 2.56256C6.11227 2.56256 4.16992 4.50491 4.16992 6.88919C4.16992 9.27346 6.11227 11.2158 8.49655 11.2158C10.8808 11.2158 12.8232 9.27346 12.8232 6.88919C12.8232 4.50491 10.8808 2.56256 8.49655 2.56256ZM8.49655 10.2535C6.63973 10.2535 5.13219 8.74244 5.13219 6.88919C5.13219 5.03594 6.6433 3.52483 8.49655 3.52483C10.3498 3.52483 11.8609 5.03594 11.8609 6.88919C11.8609 8.74244 10.3534 10.2535 8.49655 10.2535Z" fill="#333333"/>
</svg>
