<svg width="12" height="12" viewBox="0 0 12 12" fill="none" xmlns="http://www.w3.org/2000/svg">
<path d="M11.0625 3.75H10.3125V1.875C10.3125 1.66823 10.1443 1.5 9.9375 1.5H9.1875V0.5625C9.1875 0.252352 8.93515 0 8.625 0H3.375C3.06485 0 2.8125 0.252352 2.8125 0.5625V1.5H2.0625C1.85573 1.5 1.6875 1.66823 1.6875 1.875V3.75H0.9375C0.420563 3.75 0 4.17056 0 4.6875V8.8125C0 9.32944 0.420563 9.75 0.9375 9.75H2.8125V11.4375C2.8125 11.7476 3.06485 12 3.375 12H8.625C8.93515 12 9.1875 11.7476 9.1875 11.4375V9.75H11.0625C11.5794 9.75 12 9.32944 12 8.8125V4.6875C12 4.17056 11.5794 3.75 11.0625 3.75ZM9.9375 1.875V3.75H9.1875V1.875H9.9375ZM3.1875 0.5625C3.1875 0.459117 3.27162 0.375 3.375 0.375H8.625C8.72838 0.375 8.8125 0.459117 8.8125 0.5625V3.75H3.1875C3.1875 3.71168 3.1875 0.69818 3.1875 0.5625ZM2.0625 1.875H2.8125V3.75H2.0625V1.875ZM8.8125 11.4375C8.8125 11.5409 8.72838 11.625 8.625 11.625H3.375C3.27162 11.625 3.1875 11.5409 3.1875 11.4375V8.25H8.8125V11.4375ZM11.625 8.8125C11.625 9.12265 11.3726 9.375 11.0625 9.375H9.1875V8.25H9.5625C9.66605 8.25 9.75 8.16605 9.75 8.0625C9.75 7.95895 9.66605 7.875 9.5625 7.875C8.89085 7.875 2.74493 7.875 2.4375 7.875C2.33395 7.875 2.25 7.95895 2.25 8.0625C2.25 8.16605 2.33395 8.25 2.4375 8.25H2.8125V9.375H0.9375C0.627352 9.375 0.375 9.12265 0.375 8.8125V4.6875C0.375 4.37735 0.627352 4.125 0.9375 4.125H11.0625C11.3726 4.125 11.625 4.37735 11.625 4.6875V8.8125Z" fill="#333333"/>
<path d="M10.6875 4.5C10.3774 4.5 10.125 4.75235 10.125 5.0625C10.125 5.37265 10.3774 5.625 10.6875 5.625C10.9976 5.625 11.25 5.37265 11.25 5.0625C11.25 4.75235 10.9976 4.5 10.6875 4.5ZM10.6875 5.25C10.5841 5.25 10.5 5.16588 10.5 5.0625C10.5 4.95912 10.5841 4.875 10.6875 4.875C10.7909 4.875 10.875 4.95912 10.875 5.0625C10.875 5.16588 10.7909 5.25 10.6875 5.25Z" fill="#333333"/>
<path d="M9.1875 4.5C8.87735 4.5 8.625 4.75235 8.625 5.0625C8.625 5.37265 8.87735 5.625 9.1875 5.625C9.49765 5.625 9.75 5.37265 9.75 5.0625C9.75 4.75235 9.49765 4.5 9.1875 4.5ZM9.1875 5.25C9.08412 5.25 9 5.16588 9 5.0625C9 4.95912 9.08412 4.875 9.1875 4.875C9.29088 4.875 9.375 4.95912 9.375 5.0625C9.375 5.16588 9.29088 5.25 9.1875 5.25Z" fill="#333333"/>
<path d="M8.0625 8.8125H4.125C4.02145 8.8125 3.9375 8.89645 3.9375 9C3.9375 9.10355 4.02145 9.1875 4.125 9.1875H8.0625C8.16605 9.1875 8.25 9.10355 8.25 9C8.25 8.89645 8.16605 8.8125 8.0625 8.8125Z" fill="#333333"/>
<path d="M8.0625 9.75H4.125C4.02145 9.75 3.9375 9.83395 3.9375 9.9375C3.9375 10.041 4.02145 10.125 4.125 10.125H8.0625C8.16605 10.125 8.25 10.041 8.25 9.9375C8.25 9.83395 8.16605 9.75 8.0625 9.75Z" fill="#333333"/>
<path d="M8.0625 10.6875H4.125C4.02145 10.6875 3.9375 10.7715 3.9375 10.875C3.9375 10.9785 4.02145 11.0625 4.125 11.0625H8.0625C8.16605 11.0625 8.25 10.9785 8.25 10.875C8.25 10.7715 8.16605 10.6875 8.0625 10.6875Z" fill="#333333"/>
</svg>
